<?xml version="1.0" encoding="UTF-8"?><svg id="Layer_1" xmlns="http://www.w3.org/2000/svg" width="284.48mm" height="284.69mm" xmlns:xlink="http://www.w3.org/1999/xlink" viewBox="0 0 806.39 806.99"><defs><style>.cls-1{fill:url(#linear-gradient);}.cls-1,.cls-2,.cls-3,.cls-4,.cls-5,.cls-6,.cls-7,.cls-8,.cls-9{stroke-width:0px;}.cls-2{fill:#389445;}.cls-3{fill:#cfe8cf;}.cls-4{fill:#0d8241;}.cls-5{fill:none;}.cls-6{fill:#faa41c;}.cls-7{fill:#ffdea2;}.cls-8{fill:#fff1d4;}.cls-10{clip-path:url(#clippath);}.cls-9{fill:#fec458;}</style><clipPath id="clippath"><rect class="cls-5" width="806.39" height="806.99"/></clipPath><linearGradient id="linear-gradient" x1="313.35" y1="250.79" x2="282.19" y2="152.67" gradientTransform="translate(0 807.35) scale(1 -1)" gradientUnits="userSpaceOnUse"><stop offset="0" stop-color="#389445" stop-opacity="0"/><stop offset=".62" stop-color="#389445" stop-opacity="0"/><stop offset=".83" stop-color="#389445" stop-opacity="0"/><stop offset=".87" stop-color="#389445" stop-opacity="0"/><stop offset=".92" stop-color="#389445" stop-opacity="0"/><stop offset=".96" stop-color="#389445" stop-opacity="0"/><stop offset="1" stop-color="#389445"/></linearGradient></defs><g class="cls-10"><path class="cls-2" d="M754.65,175.54c5.41-1.28,10.92-2.65,16.69-4.22,3.07-.89,5.51-1.72,6.2-.8.54.85,0,1.68-.42,2.62-2.1,4.05-6.1,8.56-6.31,13.33-.14,3.89,1.38,7.26,4.85,7.74,4.37.24,4.04-7.77,7.64-9.3,5.37-1.31,24.74,4.48,22.98,11.59-2.99,6.92-17.77,5.13-25.01,6.27-3.52.51-6.65,1.27-9.71,2.76-4.55,1.96-9.64,7.53-12.77,8.25-4.31.93-10.28-1.88-7.5-6.41,1.55-2.93,4.02-6.1,4.38-9.6,1.32-6.95-11.09-18.04-1.17-22.19l.14-.06h.01Z"/><path class="cls-4" d="M615.57,221.61c6.19,5.44-4.41,13.76-4.96,20.07-3.61,18.16,37.83,3.48,47.48,3.13,12.08-3.27,32.49-2.74,41.91-9.75,2.42-8.26-8.51-14.74-11.33-22.37-.82-2.34-3.62-6.96-.76-8.4,7.57,2.47,12.39,13.55,20.92,15,9.66,2.07,5.17-11.22,6.54-16.35,5.62-9.35,18.73,11.12,17.62,17.35-4.06,12.84-13.04,10.23-12.53,30.84-.93,52.3-.06,104.69.62,157,1.42,52.17.99,104.34.94,156.51-.03,14.99.07,30.01.11,44.97.27,4.55-1.16,15.45-4.19,15.42-11.59-115.93-1.93-238.35-5.26-356.32.06-6.47-.34-15.41-4.82-19.41-9.5-7.68-23.72-.47-34.63.76-10.47,2.2-21.13,3.03-31.79,4.78-26.44.42-55.43,38.58-30.91,34.3,6.08-1.07,13.17-3.99,18.72-4.61,15.18.15-15.05,12.49-19.81,11.5-22.12,2.13-12.59-10.9-16.14-22.89-6.5-2.28-7.1,13.05-12.8,13.62-3.51-1.8-1.52-8.78-2.51-12.76-1.89-10.67-20.81-2.11-28.22-1.92-37.79,5.37-74.51,15.8-112.29,18.25-4.76-6.13,36-10.46,40.92-12,23.78-5.64,47.83-10.37,72.03-13.81,18.17-3.67,58.77-5.78,45.74-33.75-5.81-12.09,12.7-13.66,19.24-9.23l.14.1v-.03Z"/><path class="cls-2" d="M399.53,35.52c-.63-2.47,3.51-5.6,6.01-5.29,6.48.87,7.58,22.5,11.18,28.59,8.57,17.44,9.98-1.83,23.44,4.57,2.04.94,5.48,2.41,3.31,4.99-2.44,2.9-8.32,5.88-12.72,7.84-27.22,11.64-54.16,23.78-80.71,36.86-8.29,3.89-16.87,7.15-25.23,10.87-13.36,5.85-26.04,13.46-39.43,19.57-47.33,20.64-95.18,40-141.71,62.46-16.77,8.68-34.97,14.31-52.51,21-19.78,7.86-39.23,17.17-58.56,25.85-7.82,3.47-15.48,7.78-23.5,10.74-9.77,3.57-13.04.97-2.96-4.99,127.26-59.05,258.04-114.66,386.57-172.07,3.95-1.89,7.42-4.38,9.36-6.78,2.27-2.75,2.66-4.75,1.27-4.86-3.45.08-6.74,2.33-10.25,2.34-3.26.04-4.81-3.24-4.23-5.29.55-1.62,2.31-2.18,3.79-2.85,2.1-.89,3.71-1.96,5.06-4.23.69-1.16,1.37-2.64,1.93-3.99,2.61-6.92,6.08-14.19,5.65-20.85-.16-1.47-1.04-2.48-2.37-2.9-1.03-.45-2.78-.52-3.37-1.49l-.03-.06v-.03Z"/><path class="cls-2" d="M472.65,95.16c-2.86,4.21-10.8,8.16-15.94,10.61-7.53,3.54-14.96,7.4-22.48,10.9-13.05,7.37-26.67,9.59-40.5,14.51-22.93,9.81-45.85,20.9-68.82,30.94-7.06,2.9-15,4.74-22.12,7.78-9.42,4.44-13.38,10.94-22.72,12.76-3.93.92-9.08,1.37-13.86,2.8-6.61,1.92-13.07,4.51-19.57,6.99-20.02,7.43-39.02,17.1-58.88,24.84-11.5,4.75-22.34,10.84-33.99,14.91-40.39,13.55-78.94,33.8-119.39,48.28-6.2,1.73-11.56,1.54-6.74-2.35,3.3-2.48,7.36-4.17,11.28-5.72,45.64-17.08,89.24-39.43,134.19-58.24,34.65-14.07,70.13-26.5,103.78-43.13,22.36-10.15,45.85-17.3,68.41-27.08,30.31-12.28,60.05-25.95,90.29-38.44,6.7-2.71,13.49-5.2,20.26-7.63,4.45-1.61,17.9-7.2,16.84-2.79l-.04.08h0Z"/><path class="cls-2" d="M129.6,305.04c-15.65,5.31,8.15-12.78-4.36-15.84-7.97-2.2-17.42,3.33-25.13,3.64-21.83-1.51,57.94-24.85,61.46-25.3,11.4-3.24,43.01,5.1,15.9,13.18-10.61,3.66-22.17,6.79-20.5,21.02.56,9.22-.78,21.28.39,29.8,3.75,12.73,43.77-3.19,57.89-4.43,3.62-.53,8.4-1.73,11.09-.86,1.41.82-1.48,4.13-3.27,9.42,0,62.08-1.31,126.92,1.27,189.93,2.33,20.72,10.06,45.28,2.74,65.17-.94.77-1.85-1.07-2.5-4.81-1.52-8.75-1.11-18.08-2-26.87-7.81-43.73-3.99-88.48-4.79-132.7-.04-13.55-3.83-26.04-4.72-39.38-1.52-13.66,2.9-28.63-.96-42.03-9.54-20.3-48.63,6.36-57.6-10.19-4.2-12.02-1.42-25.4-2.14-37.9.14-3.04-1.65-17.95-4.5-8.6-1.34,1.17-.51,38.1-2.92,27.42-1.06-2.52.56-38.96-6.15-26.33-2.27,5.1-3.59,12.9-9.09,15.63l-.16.08.03-.03ZM214.28,380.65c-.47,1.1-.11,6.34-.21,8.8.06,3.24-.15,6.72.23,9.77.1.49.13.87.44,1.13.75.48,1.99-4.44,1.61-8.7-.32-3.35-1.18-7.98-2.02-10.97l-.03-.04h-.01ZM168.51,272.06c-.79.52-.42,1.65.63,1.49,1.24-.34.71-1.59-.44-1.56l-.2.07Z"/><path class="cls-2" d="M67.75,590.15c1.58-3.62,7.19-3.28,12.12-1.63,5.93,2.27,11.45,5.41,17.25,8.01,5.44,2.38,11.67,5.85,18.28,8.08,3.58,1.24,7.26,2.38,10.73,3.81,5.44,2.27,9.82,4.2,13.97,5.64,2.33.78,4.85,1.45,7.23.86,8.7-3.23,7.19-17.73,7.43-25.47-.13-13.79.34-27.57-1.01-41.22-.61-8.06-2.65-17.87.21-25.34.79-1.73,1.86-2.27,2.89-1.48,1.63,1.16,2.9,5.62,3.47,11.09.65,6.32.9,12.73,1.37,19.11,1.44,13.35-.21,29.32,10.12,39.51,5.1,5.09,12.87,7.82,20.54,10.56,10.25,3.86,20.72,7.36,31.17,10.56,3.62,1.03,13.87,5.23,5.02,6.3-15.24.72-30.28-7.13-44.7-11.54-4.1-1.3-8.54-2.71-12.8-2.04-11.02,2.35-5.84,13.63,1.66,17.2,4.1,2.3,9.42,3.74,14.65,5.17,4.34,1.71,29.33,5.72,25.74,11.21-4.95,3.72-15.94,1.47-22.34-.34-24.78-7.33-49.05-17.1-73.92-24.44-12.38-4.13-48.73-7.39-49.14-23.46l.03-.13h.04Z"/><path class="cls-4" d="M144.18,616.79c-1.07,1.82-2.35-.1-3.19-4.79-2.45-31.84-.83-64.5-1.62-96.5.14-40.17-1.16-80.32-2.52-120.47-.69-22.43-1.24-44.87-1.14-67.31.03-4.85.06-10.02.54-14.27.56-4.72,1.14-7.79,2.26-7.77.37.16.42.35.65.75,1.45,3.95,1.55,8.78,1.82,13.45,2.58,93.5,4,187.1,5.27,280.67.11,4.74-.38,13.34-1.99,16.14l-.06.08h-.01Z"/><path class="cls-4" d="M223.68,540.45c-1.99-.62-2.62-9.49-3.07-12.87-4.17-59.36,1.93-120.35-2.37-179.02-.41-5.96-.24-12.91,2.73-17.7,4.19-6.7,11.57-8.34,19.99-10.45,7.6-1.89,15.68-3.38,23.46-4.91,10.16-1.55,20.64-4.55,22.22-16.31,1.14-3.36,1.49-25.94,3.93-17.75,1.1,7.27,3.19,24.81-3.28,32.72-4.44,5.68-12.05,6.72-18.82,8.01-7.78,1.4-15.84,2.71-23.58,4.31-6.01,1.23-12.67,3.83-15.73,9.27-3.13,5.36-3.19,11.64-3.34,17.75-.2,58.1-.11,116.32-.28,174.37-.13,3.68-.2,11.22-1.79,12.56h-.06Z"/><path class="cls-9" d="M303.96,625.06c.54-3.81,10.9.83,14.52,1.89,5.82,1.85,14.04,3.93,20.76,5.96,5.1,1.31,11.14,3.45,13.41,6.41,4.83,5.58.77,16.65.68,24.03-.93,7.92.59,17.62-8.01,19.2-6.19.75-13.25,0-19.79-1.66-35.06-10.14-68.99-24.43-104.37-33.27-3.44-1.16-18.34-5.09-8.39-6.7,13.87-1.14,28.33,3.23,41.48,7.74,16.61,5.65,33.32,11,49.75,16.73,7.61,2.65,15.48,4.85,23.36,6.37,17.14,3.98,21.2-5.82,19.52-20.95-.55-4.38-1.45-6.98-4.29-8.99-4.02-2.79-12.26-4.38-21.06-7.05-6.61-2.24-14.12-3.96-17.55-9.68v-.07l-.03.03Z"/><path class="cls-1" d="M303.99,625.08c.53-3.81,10.9.83,14.52,1.89,5.82,1.85,14.04,3.93,20.76,5.96,5.1,1.31,11.14,3.45,13.41,6.41,4.83,5.58.77,16.65.68,24.03-.93,7.92.59,17.62-8.01,19.2-6.19.75-13.25,0-19.79-1.66-35.06-10.13-69-24.43-104.37-33.27-3.44-1.16-18.34-5.09-8.39-6.7,13.87-1.14,28.33,3.23,41.49,7.74,16.6,5.65,33.32,11,49.75,16.73,7.61,2.65,15.48,4.85,23.36,6.37,17.14,3.98,21.2-5.82,19.52-20.95-.55-4.38-1.45-6.98-4.28-8.99-4.02-2.79-12.28-4.38-21.06-7.05-6.61-2.24-14.12-3.96-17.55-9.68v-.07l-.03.03Z"/><path class="cls-4" d="M299.98,629.48c-.17,7.94.37,17.93-4.06,21.64-4.57,1.35-9.32-4.07-13.43-6.05-16.23-9.15-35.64-12.08-52.47-19.85-5.72-2.95-2.95-4.05,4.64-2.5,8.97,1.79,17.63,5.16,26.74,7.3,8.12,1.37,22.16,8.37,28.14,1.49,2.72-3.45,2.93-9.78,3.07-14.66.1-11.26.16-22.53.16-33.76-1.25-29.67-2.93-59.71-1.38-89.45,1.21-12.88,3.83-5.2,4.41,2.79.66,7.63.71,15.77.69,23.51-.2,15.38.99,30.49,2.16,45.69,1.28,20.99.93,42.47,1.38,63.55v.3h-.04Z"/><path class="cls-2" d="M194.43,263.68c.69-2.66,8.22-5.58,11.97-6.67,55.27-16.14,108.44-39.17,163.64-55.64,3.06-.96,6.79-1.97,9.63-2.37,7.84-1.16,7.74,2.13,1.23,5.55-9.18,4.78-19.99,6.54-29.8,10.11-4.09,1.38-8.13,2.89-12.19,4.38-33.17,12.78-67.22,22.98-100.94,34.21-7.84,1.75-39.77,18.08-43.52,10.47v-.07h-.01Z"/><path class="cls-4" d="M558.52,127.11c5.47,9.22,3.34,20.24,1.31,30.4-1.34,6.29-3.3,12.67-5.1,18.82-1.1,3.79-2.65,8.29-4.79,11.29-1.82,2.64-4.38,4.14-5.12-.07-.92-5.31-.69-11.46-.47-16.99.39-7.26.37-14.66,2.09-21.69,1.37-6.55,4.68-15.07-.3-20.64-3.68-3.89-9.94-3.69-14.77-2.21-6.37,1.85-12.36,6.61-17.85,7.37-7.75,1.38-11.88-6.86-12.5-13.53-.54-4.12.3-10.83,3.55-12.45,1.3-.49,2.48.39,3.21,2.38,1.86,3.4.69,13.56,5.4,14.05,3.65.48,12.53-5.1,18.89-6.39,9.5-2.24,20.86,1,26.29,9.42l.14.23h.01ZM555.63,140.03c-3.4-.54-9.91,18.16-5.47,19.24,2.82.03,8.01-16.72,5.57-19.2l-.1-.06h0Z"/><path class="cls-2" d="M295.88,507.69c-.96-1.1-1.89-8.27-3.41-10.01-2.35.35-2.33,13.12-2.5,18.21-.4,11.04.52,27.35-.03,36.8-.38,3.19-1.07-.71-1.51-4.3-3.21-37.52.47-75.91-2.06-113.64-.82-17.8-3.45-35.79-2.07-53.59.18-2.95,1.23-9.67,2.09-10.64.39-.55.72-.07.93,1.4.56,5.75.59,12.67,1.61,18.58,1.34,8.87,4.12,15.73,4.57,24.84.27,4.72.08,9.53.16,14.27.03,10.4,1.78,20.76,2.54,30.56.82,9.11.85,18.32,1.08,27.5.24,7.19.13,14.97-.47,18.2-.11.69-.24,1.34-.52,1.8-.13.18-.25.2-.38.08l-.03-.03v-.03Z"/><path class="cls-2" d="M437.29,292.26c14.96,4.57,30.31-3.19,45.67-3.65,1.07.06,2.13-.15,2.61.41.03.32-1.01.79-2.85,1.31-4.38,1.23-9.67,2.03-14.35,2.72-12.86,1.93-25.19,5.27-37.83,7.61-8.32,1.69-17.41,3.41-23.43,8.32-3.19,2.56-6.09,6-8.35,9.22-1.08,1.52-1.99,2.73-2.82,3.2-3.52,1.52-4.43-7.91-4.86-11.16-.82-21.21-2.19-42.68-2.06-63.83.18-4.78.59-21.14,3.98-20.62,1.89,2.44,1.73,5.96,2.23,9.35.55,6.22.48,12.76.52,19.1.86,10.92-3.23,35.39,8.15,40.16,10.66,3.62,22.36-4.86,33.21-2.14l.17.03h.01Z"/><path class="cls-4" d="M395.08,316.26c3.51-6.44,4.93,13.43,4.93,15.65,1.4,39.77.18,79.94,1.85,119.82-.1,3.96-.38,11.4-2.62,13.18-.85.37-1.71-1.17-2.33-4.2-.58-2.68-.89-6.87-.94-10.15-.25-13.77-.47-27.57-.62-41.32-.24-12.4-1.56-24.6-2.16-37.02-.41-12.74-.35-25.53-.14-38.27.16-5.46.31-12.97,1.99-17.55l.06-.13h-.01Z"/><path class="cls-4" d="M380.4,346.58c.41,16.39-.72,30.8.34,47.74.34,12.93.56,25.91.82,38.85-.16,10.42,1.17,27.92-1.95,36.38-2.95,5.22-3.98-10.22-3.95-12.73-.47-40.46-.79-80.97-2.16-121.4-.14-11.26,1.03-22.48.61-33.76-.54-12.86-.78-26.67.7-39.17,3.1-17.25,3.89,6.63,3.62,10.73,1.1,23.79,1,49.28,1.95,73.07v.3h.01Z"/><path class="cls-2" d="M714.1,621.92c11.15-5.24,1.96,81.93,3.89,92.33-.14,4.34.28,12.69-2.35,15.36-.48.17-.97-.35-1.44-1.49-.75-1.96-1.07-3.85-1.42-6.67-1.45-29.28-2.89-58.95-1.8-88.27.25-3.62,1.03-9.11,3.06-11.19l.08-.07h-.01Z"/><path class="cls-2" d="M532.27,61.85c.25-1.49.93-4.69,2.57-2.47,2.37,2.96,2.23,9.94,1.72,14.52-.79,6.67-1.86,14.55-8.11,18.17-6.34,3.37-15.34,1.37-22.58,1.71-5.19-.14-12.83,1.8-16.68-2.11-2.82-6.39,15.87-11.59,19.14-16.35,3.1-3.34,2.89-7.7,3.38-11.5,1.41-11.32,13.46,6.1,18.04,5.72,1.76-.87,1.69-4.58,2.47-7.51l.04-.18h0Z"/><path class="cls-4" d="M281.25,20.59c-.35-2.75-1.08-4.57.63-5.05,3.86-.66,7.2.18,12.9,1,2.89,1.28,28.84,1.33,24.54,5.75-1.38,1.85-10.47,4.24-16.05,5.67-9.98,2.71-19.83,6.88-26.98,14.38-1.87,1.79-6.26,7.96-1.27,6.4,3.26-.78,13.21-9.39,16.14-7.44,1.18,1.21-1.33,6.29-6.33,10.49-4.16,3.43-9.87,6.23-15.29,5.4-10.29-2.28-4.36-14.25,1.25-19.06,5.38-5.4,11.87-9.54,10.46-17.37l-.03-.17h.03Z"/><path class="cls-2" d="M303.27,50.46c4.06,3.64,7.81-1.47,10.71-4.85,1.96-2.11,9.06-12.57,11.21-7.03,1.03,2.9-.08,10.73.39,14.01.14,1.86,1.54,2.71,3.2,1.59,5.89-4.03,8.54-14.36,13.29-19.11,4.57-4.41,2.96,4.3,1.9,7.74-2.28,7.33-6.37,15.05-12.16,20.27-8.49,7.41-20.54,2.85-31.21,1.34-11.88-1.97-17.42-2.72-7.87-14.94,1.42-1.73,2.79-3.55,4.44-4.47.39-.18.76-.24,1.16-.1,1.31.42,2.64,3.52,4.79,5.44l.13.11h.01Z"/><path class="cls-2" d="M56.68,346.43c.32-.83.82-1.56,1.27-.53.54,1.06,1.04,4,1.87,7.27,2.42,13,12.79,15.65,25.11,15.92,7.25.59,18.3-.06,24.02,1.1,4.12.48,4.98,4.34,5.19,7.75-.04,2.83.72,6.86-4.05,5.29-3.72-1.06-7.46-2.52-11.22-3.69-10.56-3.4-21.86-2.3-32.42-5.62-8.47-2.64-17.59-5.71-19.59-14.45-.27-1.4-.49-2.37.51-3.03,1.17-.59,3.2.18,4.5-.87,1.92-1.48,3.61-6.4,4.78-9.01l.06-.11h-.01Z"/><path class="cls-2" d="M499.33,395.79c-2.83-10.35-3.2-22.14-2.74-33.17.03-6.06.17-18.69,3.13-22.09.35-.44.79-.71,1.3-.54.85.3,1.63,1.99,2.21,4.67,1.21,5.57.83,12.14,1.1,17.95.11,14.36,3.2,27.76,4.41,41.65.92,13.91.2,28.05-.3,41.92-.31,5.46.8,12.84.34,17.07-.44,3.85-1.61,5.78-3.14,2.21-2.82-6.85-1.75-14.55-1.41-21.96.24-15.69-.85-32.52-4.84-47.45l-.06-.28h-.01Z"/><path class="cls-2" d="M463.27,37.61c3.09-2.13,7.53-3.74,11.15-2.97,6.88,1.09-6.89,16.21,1.44,14.77,5.72-1,16.58-7.3,23.39-10.02,3.57-1.75,19.34-7.13,16.68-2-2.19,2.82-7.03,5.38-10.56,7.2-12.83,6.13-25.94,11.39-38.17,18.51-4.61,2.3-13.28,7.54-17.82,5.12-1.48-1.54,2.78-5.93,5.27-10.78,3.93-6.15,2.11-15.55,8.43-19.71l.18-.13h.01Z"/><path class="cls-2" d="M321.56,25.08c-2.83,1.31-7.32.03-13.53-.58-4.21-.48-9.18-.66-13.87-1.59-4.64-.93-11.78-2.42-15.37-2-2.78.03-4.4.51-5.78-.85-1.33-2.38.41-6.84,4.61-9.57,4.74-2.89,10.54-2.88,15.94-3.62,6.98-.61,13.17-3.74,19.65-5.89,5.88-1.72,11.81.24,8.4,4.43-1.45,1.92-2.24,3.26-1.65,6.2.47,2.79,1.62,7.37,2.2,10.02.2,1.16.51,2.62-.52,3.4l-.08.06Z"/><path class="cls-2" d="M600.47,167.14c.9-1.47,2.41-1.28,4.27-1.42,7.58-.28,16.32,2.31,21.13,8.63,3.98,4.88,4.86,11.48,5.78,17.97.52,4.26.95,8.91-.92,12.83-1.9,4.48-7.3,5.64-10.61,1.69-1.68-1.89-2.54-4.74-3.27-7.22-.92-3.44-2.43-6.88-4.06-9.94-1.17-2.27-2.02-3.74-2.38-6.05-.59-3.88.17-8.18-3.9-10.45-1.92-1.69-6.37-3.21-6.06-5.98l.03-.08h0Z"/><path class="cls-2" d="M64.7,363.88c-.01-.56,2.82-.87,7.32-.75,6.99.17,14.7,1.44,21.76.63,17.47-1.41,16.58-11.66,17.73-31.73.38-3.64,1.61-16.76,5.22-16.96,1.25-.04,2.48,5.85,2.66,9.53.51,7.54.54,15.7.47,23.36-.23,5.72-.44,11.85-4.74,15.89-6.31,5.12-14.76,2.95-23.98,2.96-5.75-.27-11.77-.47-17.45-.89-2.82-.3-7.75-.73-9.01-2v-.03h.01Z"/><path class="cls-4" d="M566.53,61.66c2.17,1.41,4.64,3.62,7.47,2.26,3.17-1.09,8.44-4.74,11.81-4.07,6.26,1.75,7.91,11.98,9.4,17.63.82,4.78,4.36,17.14-3.72,12.32-3.33-2.21-6.03-6.33-9.54-8.34-4.82-3.03-11.94-2.18-16.75-4.27-4-1.93-4.27-7.3-3.12-11.07.69-2.21,2.09-5.41,4.36-4.5l.1.04h-.01Z"/><path class="cls-4" d="M215.48,265.6c1.87-2.81,7.4-4.26,10.91-5.51,15.92-4.65,31.49-11.49,47.53-15.84,5.12-1.35,12.42.14,6.58,5.91-4.02,3.71-10.18,5.62-15.37,7.54-14.14,4.99-28.4,11.16-43.64,10.44-2.13-.2-6.58-.2-6.06-2.42l.04-.08v-.03Z"/><path class="cls-2" d="M512.12,281.34c1.82-2.27,2.37,4.12,2.61,5.95,1.66,19.99.63,40.17.08,60.2-.03,5.95.27,12.62-1.35,18.25-1.66,5.92-4.38,5.07-5.27-.28-.76-4.21-.41-9.32-.18-13.76,1.1-18.86-.28-37.9,1.03-56.68.35-4.24,1.24-10.35,3.04-13.6l.06-.08h-.01Z"/><path class="cls-4" d="M510.51,465.51c-4.88-2.88-3.58-18.18-3.55-23.74.83-15-.03-30.41.79-45.45.16-2.3,1.52-12.24,4.1-6.77,1.44,3.78,1.69,7.98,1.96,12.12.75,16.11.32,32.22.2,48.34-.24,3.78.16,14.17-3.41,15.49h-.08Z"/><path class="cls-2" d="M283.29,324.25c2.09-5.37,4.23-10.54,5.38-16.27.68-2.55.63-5.4,1.79-7.44,2.45-.08,1.79,13.57,1.71,17.51-.34,8.42-.35,16.86.23,25.26-.04,5.6,3.67,27.98-3.35,27.15-7.32-4.92-6.85-21.59-7.74-29.97-.47-5.85.3-12.05,1.9-16.04l.08-.23v.03Z"/><path class="cls-2" d="M771.24,102.41c1.79,1.92-.49,2.69-4.34,4.1-3.54,1.2-8.88,1.42-13.94,1.45-7.67-.11-17.21.99-22.51-5.05-1.8-2.26-.73-5.16,2.59-6.64,2.83-1.25,6.2-1.24,9.35-1.25,5.51.13,14.52-.89,19.21.32,2.62.56,4.23,2.66,6.13,4.26,1.07.9,2.41,1.73,3.44,2.71l.07.07v.03Z"/><path class="cls-2" d="M359.92,25.16c2.62-3.57,6.29-6.34,11.18-8.74,1.97-1.1,28.56-13.72,22.33-5.26-5.81,6.03-14.86,9.04-21.68,13.41-11.28,6.3-14.04,16.59-18.59,27.68-2.44,5.92-11.15,14.28-10.04,6.13,1.48-6.34,7.02-12,9.29-18.21,2.2-5.47,4.2-10.49,7.36-14.79l.16-.21h0Z"/><path class="cls-2" d="M545.3,172.95c1.82,3.75-11.54,7.54-14.65,8.32-14.81,3.45-29.62,9.75-44.8,12.38-3.59.65-12.49.31-6.4-4.2,6.51-4.2,15.35-5.58,22.85-7.68,9.2-2.3,18.28-5.14,27.43-7.77,4.52-1.18,11.57-3.4,15.49-1.11l.07.07Z"/><path class="cls-2" d="M720.63,196.08c-1.1,2.1-3.71,3.71-5.16,5.71-4.51,5.85,1.18,14.15,1.01,20.86-.06,7.15-9.12,6.06-13.96,3.21-8.63-4.92-12.46-13.88-18.06-20.57-1.96-2.27-4.19-7.89,1.32-4.17,2.92,1.93,6.43,6.67,8.7,9.94,3.02,4.47,7.02,8.05,10.33,1.8,3.4-5.3,4.07-18.55,11.87-20.13,2.03-.25,5.14.75,4,3.26l-.06.11v-.03Z"/><path class="cls-2" d="M51.51,348.74c-.41-.07-.73-1.66-1.01-4.37-.44-3.99-.78-10.02-1.75-14.2-2.68-14.08-14.59-9.32-25.2-7.6-1.78.17-8.49,1.44-7.74-1.45,1.82-3.07,7.32-5.26,10.91-6.86,6.05-2.27,14.42-6.44,19.18-7.25,4.5-1,6.96,2.59,7.43,6.77.78,5.02.39,11.26.38,16.65-.23,5.33-.06,15.29-2.16,18.32h-.04Z"/><path class="cls-4" d="M600.4,172.96c3.96.28,8.57.11,11.94,2.65,2.31,1.61,4.17,4.65,1.87,6.74-1.73,1.47-6.31,2.1-9.11,2.34-10.56.92-23.34-3.47-21.5-15.99.66-5.72,3.67-12.28,8.37-15.51.96-.58,2.1-1.2,2.99-.45.65.75.45,1.9.32,2.88-.55,3.99-3.54,9.95-2.83,14.15.93,3.24,4.91,2.85,7.74,3.17h.23-.03Z"/><path class="cls-4" d="M50.34,352.01c-.31-6.96.34-14.11.58-21.41.27-7.73-.11-15.75.86-23.26.24-2.62,2.54-11.15,5.33-6.19,2.44,5.7.83,18.59.73,25.99-.34,8.32.06,16.65-.11,24.98-.72,17.96-6.68,13.6-7.37.21v-.32h-.01Z"/><path class="cls-2" d="M59.02,592.21c-10.06,1.45-21.05-3.83-30.74-7.25-5.55-2.19-11.74-4.05-15.91-8.06-4.71-5.17,2.16-6.06,8.5-4.36,6.4,1.66,12.38,4.74,18.65,6.81,5.65,2.02,11.4,3.43,16.89,5.48,6.31,2.03,9.56,6,2.83,7.34l-.21.04h0Z"/><path class="cls-2" d="M384.15,30.46c2.2-7.53,7.77-14.05,14.05-19.09,3.02-2.33,9.84-7.82,13.21-5.84,2.64,5.68-17.07,19.92-20.14,26.77-3.93,5.67-3.5,12.33-5.92,18.23-1.48,2.04-2.24-2.26-2.76-4.21-.94-4.05-.14-10.67,1.48-15.59l.08-.28h0Z"/><path class="cls-4" d="M500.92,397.55c.38-.23.78.44,1.16,1.9.79,3.26,1.17,7.67,1.4,11.29.13,11.14,3.4,43.73-2.41,51.68-.49.11-.95-.69-1.3-2.26-.68-3.16-.8-7.46-.83-10.95.06-12.73.18-25.5.27-38.23.21-4.09-.07-10.15,1.68-13.41l.04-.03Z"/><path class="cls-4" d="M381.63,31.98c.51-.04.85.92,1.1,2.58.9,4.5.32,16.01,8.22,11.28,3.09-1.48,12.84-10.78,13.46-5.55-1,8.78-14.24,27.83-22.31,19.8-6.1-6.33-5.91-22.12-.52-28.09h.06Z"/><path class="cls-2" d="M422.38,188.32c2.52-3.71,7.55-6.36,11.76-8.26,10.08-4.03,20.33-8.35,30.8-11.01,3.67-.87,9.78-.47,5.72,3.98-3.13,3.28-7.7,5.57-11.94,7.33-7.16,2.83-14.46,5.47-21.69,8.2-4.61,1.88-17.1,5.67-14.75-.08l.07-.14h.03Z"/><path class="cls-4" d="M98.63,297.53c3.19.78,8.87,3.83,4.2,6.19-7.68,2.85-22.79.66-31.91-.76-2.96-.42-12.04-3.14-9.9-5.13,3.1-2.18,7.4-1.78,11.7-2.06,8.23-.06,17.96-.3,25.63,1.69l.28.08h0Z"/><path class="cls-4" d="M500.26,93.67c2.96-4.79,11.91-4.85,17.58-4.23,3.99.55,11.18,1.24,12.94,4.89-.8,5.53-20.23,9.12-25.51,7.02-3.17-.86-7.01-3.98-5.1-7.51l.1-.17Z"/><path class="cls-2" d="M616.07,299.42c3.09-.54,2.85,4.64,2.44,7.27-1.86,10.67-16.38,22.64-26.63,17.66-5.41-5.19,5.46-10.32,9.49-12.81,4.92-2.59,10.77-10.68,14.57-12.09l.13-.04h0Z"/><path class="cls-2" d="M696.07,86.31c-.04,3.54-4.51,3.81-8.8.68-3.93-3-6.74-7.46-10.43-10.71-3.64-3.81-12.33-8.51-8.35-10.01,9.99-2.68,26.49,10.5,27.57,19.86v.18Z"/><path class="cls-2" d="M561.41,126.09c-3.64.24-11.7-3.07-16.49-4.36-4.5-1.52-10.15-2.13-12.74-6.29-1.78-4.69,4.76-9.4,10.25-8.87,6.29.9,11.4,5.95,15.29,10.69,1.3,1.96,6.68,8.43,3.82,8.81h-.13Z"/><path class="cls-2" d="M596.42,112.85c.59-.28,1-.16,1.62.06,2.42,1.07,5.2,3.83,7.96,4.83,3.06,1.27,7.13.76,10.36,1.09,1.75.21,3.33.31,4.24,1.61,1.68,5.78-10.29,12.38-15.72,12.07-5.1,0-7.77-5.17-8.89-9.61-.72-2.96-1.59-8.3.31-9.97l.1-.06h.01Z"/><path class="cls-4" d="M62.66,364.68c3.4-1.97,9.19-1.62,13.35-1.62,8.98.35,18.07.75,27.04.99,15.48.39,18,4.55-1,5.27-4.88-.08-41.12.45-39.43-4.58l.07-.06h-.03Z"/><path class="cls-2" d="M57.95,294.89c4.95,1.44,12.94,5.34,18.76,6.84,2.78,1,15,2.97,8.29,6.47-2.81,1.33-8.92,1.89-14.05,3.04-5.89,1.35-12.83,2.51-15.94-3.21-2.27-3.68-4.95-15.86,2.73-13.21l.23.07h-.01Z"/><path class="cls-2" d="M618.74,233.77c4-16.01,17.41-19.56,10.29,1.37-1.34,4.06-2.48,8.26-1.8,12.39.1,2.38,1.45,5.09.21,7.06-2.02,1.58-5.92-.69-8.8-4.76-3.19-4.85-1.61-10.33.03-15.77l.08-.28h-.01Z"/><path class="cls-2" d="M653.85,191.81c1.31-.32,3.09.77,5.23,1.95,3.06,2.07,7.41,2.45,9.88,5.26,2.71,3.85-.86,10.94-5.84,11.24-6.67-.04-11.21-7.91-11.32-13.86-.06-2.54.69-4.21,1.9-4.55l.14-.04h0Z"/><path class="cls-2" d="M377.13,258.72c-1.03,5.38-3.96,9.73-4.45.35-.38-6.57.11-13.26.39-19.85.38-6.08,1.13-16.89,3.72-15.79,1.95,2.99,1.79,6.99,2.19,10.95.42,7.61-.3,17.17-1.79,24.05l-.07.3h.01Z"/><path class="cls-4" d="M289.72,367.87c.38-.21.77.06,1.2.77,2.85,4.89,2.93,18.4,2.66,25.5-.04,6.72-2.75,15.45-5.13,7.6-1.11-4.29-1.03-9.77-.92-14.62.3-5.4-.25-16.07,2.13-19.21l.06-.04Z"/><path class="cls-4" d="M781.42,38.37c.37,4-.77,8.3-3.59,8.46-2.4-.7-3.48-3.57-5.12-5.33-2.06-3.23-7.95-6.09-7.08-8.8.18-.66.59-1.23,1.13-1.73,5.72-5.1,14.08-.13,14.62,7.08l.04.32Z"/><path class="cls-4" d="M324.72,22.02c-5.86-2.86-12.43-9.84-10.8-16.73.92-2.47,5.37,2.04,7.75,4.4,3.62,3.86,9.32,6.22,11.74,10.49,1.56,4.62-5.98,3.21-8.4,1.99l-.3-.13h0Z"/><path class="cls-4" d="M747.52,205.07c4.92-.59,17.48,3.02,11.46,8.56-2.11,1.83-6.05,2.44-9.43,3.44-6.77,2.14-12.47,4.14-9.92-6.26,1.03-3.52,3.96-5.51,7.6-5.72h.3Z"/><path class="cls-4" d="M458.23,26.29c-6.03-.58-18-5.64-17.56-12.97,1.8-3.19,8.68,1.78,13.72,4.17,4.45,2.44,8.73,3.65,10.33,6.05.92,2.76-4.1,2.92-6.17,2.78l-.31-.03Z"/><path class="cls-4" d="M477.47,190.83c3.16,4.1-20.16,10.66-23.34,11.14-8.34,1.25-6.44-2.65-.55-5.75,4.72-2.51,10.95-4.37,16.13-5.48,3.62-.68,6.58-.66,7.67.03l.1.07Z"/><path class="cls-2" d="M741.73,205.92c.75,2.62.9,9.61.86,13.36,0,2.85-.2,5.75-1.45,8.2-3.38,6.51-11.02.44-11.4-5.34-.55-6.29,4.91-11.73,9.39-15.25,1.55-1.25,2.27-1.76,2.58-1.06l.04.08h-.01Z"/><path class="cls-2" d="M347.23,20.12c-1.3,7.81-11.33-7.87-12.93-10.8-2.61-4.96-.07-9.43,4.61-6.55,4.86,3.33,8.84,11.47,8.35,17.13l-.03.23Z"/><path class="cls-2" d="M547.72,187.42c-2.03-8.37,8.56-7.73,11.39-1.34,1.14,2.34,1.79,4.96,2.54,7.41,1.61,5.77-1.55,7.19-6.61,3.74-3.21-2.14-6-6-7.23-9.53l-.08-.27h0Z"/><path class="cls-2" d="M693.73,240.68c-2.41,3.44-12.88,4.78-16.8,2.89-6.54-4.14,8.1-14.96,12.4-11.87,2.73,1.62,5.48,5.72,4.45,8.84l-.07.14h.01Z"/><path class="cls-2" d="M568.61,61.28c-1.85.2-2.21-1.24-1.8-2.86,1.06-3.98,4.72-7.61,8.97-11.07,1.97-1.8,13.56-9.28,11.29-3.81-1.28,2.45-3.76,5.03-5.88,7.39-3.28,3.57-8.23,9.56-12.39,10.32l-.18.03Z"/><path class="cls-4" d="M422.34,186.56c4.07,6.77-16.96,11.26-19.21,7.81-1.78-4.17,16.77-11.21,19.09-7.92l.13.13h0Z"/><path class="cls-2" d="M546.41,144.47c2.43,3.86-5.65,8.37-10.06,9.84-3.86,1.32-10.29,3.98-12.66,3.55-3.88-.93,1-5.33,2.75-6.57,3.83-2.82,9.26-4.82,13.52-6.55,2.96-1.11,5.33-1.38,6.37-.37l.1.1h-.01Z"/><path class="cls-4" d="M472.04,172.54c-1.79-5.33,17.49-13.32,21.54-10.25,2.42,2.58-2.48,6.17-5.78,7.58-3.96,1.42-12.72,5.34-15.68,2.75l-.07-.1h-.01Z"/><path class="cls-2" d="M493.59,165.83c-.85-.82-.68-1.9-.11-2.93,2.83-4.82,12.62-8.43,18.14-6.48,8.66,5-14.98,12.91-17.9,9.53l-.13-.11Z"/><path class="cls-4" d="M130.11,304.45c-.51,4.36-20.85,4.83-20.44-1.1,1.75-4.44,19.13-3.12,20.43.97v.13h.01Z"/><path class="cls-4" d="M303.24,51.8c-4.68-.03-1.59-16.89,1.48-19,1.34-1.42,3.78-1.8,4.82.17,2.44,3.76-2.23,17.47-6.16,18.82l-.16.03h.01Z"/><path class="cls-2" d="M581.48,288.89c2.4-.52,3.89,1.93,3.97,4.14.4,4.33-3.11,10.04-7.31,14.14-1.89,1.69-5.05,4.44-7.5,3.02-1.61-2.65,2.02-6.95,3.31-9.71,2.34-3.43,3.72-10.32,7.34-11.54l.18-.04Z"/><path class="cls-2" d="M725.21,164.32c.1-1.62,1.99-3.04,2.96-4.43,2.55-2.86,4.79-6.61,8.11-7.47,2.48-.76,6.16.66,6.05,3.61-.99,5.26-8.67,7.6-13.24,8.63-2.16.4-3.57.31-3.83-.25l-.03-.08h-.01Z"/><path class="cls-2" d="M414.53,46.15c-2.5-4.83,1.92-11.19,5.19-14.86,8.02-7.84,4.19,9.08,1.85,12.91-1.2,2.59-4.91,5.54-6.92,2.13l-.11-.2h0Z"/><path class="cls-4" d="M224.6,641.01c.55,5.54-15.67,1.58-16.44-1.95.77-7.02,15.22-3.58,16.41,1.76l.04.2h-.01Z"/><path class="cls-4" d="M423.13,30.12c-2.83,7.33-5.78,1.42-5.5-3.85-.28-3.03,2-12.97,6.17-10.97.65.54,1.03,1.69,1.14,3.23.18,3.51-.59,7.96-1.71,11.28l-.11.3h0Z"/><path class="cls-2" d="M598.88,159.91c-1.42-1.01-2.19-4.16-2.71-6.09-.54-2.11-1.14-4.41-.08-6.46,1.47-2.8,6.39-5.26,8.99-2.86,3.59,3.95.23,10.6-2.79,13.8-1.34,1.41-2.52,1.99-3.3,1.65l-.11-.06h0Z"/><path class="cls-4" d="M195.32,261.68c3.27,1.06,1.48,3.89-2.27,5.71-4.79,1.95-10.13,3.92-15.15,4.75-1.54.21-4.26,0-2.34-2.27,3.02-3.41,8.18-5.41,12.42-7.13,2.71-1.04,5.44-1.54,7.13-1.13l.21.06h0Z"/><path class="cls-4" d="M192.56,276.44c-2.75.39-5.09-.73-2.44-3.02,3.78-2.99,13.98-6,19.89-7.99,3.96-1.11,6.55-.92,6.16.38-1.28,2.37-4.17,3.51-6.79,5.02-4.91,2.44-11.59,5-16.55,5.58l-.27.03Z"/><path class="cls-2" d="M570.28,28.5c2.42-.23,12.76,1.16,9.6,4.99-3.51,2.65-14.52.76-16.62-1.8-1.82-2.93,4.74-3.17,6.7-3.19h.32Z"/><path class="cls-2" d="M290.64,295.95c-.3.08-.59-.35-.89-1.24-.65-2.1-1.2-4.76-1.66-7.03-.52-3.54-4.55-22.69-.14-21.64,3.66,4.47,5.64,25.4,2.73,29.9l-.06.03h.01Z"/><path class="cls-4" d="M57.47,591.28c-1.83-3.11,3.43-3.89,6.44-3.41,2.66.27,5.2,1.1,6.54,3.21,1.25,1.69,1.11,4.62-1.34,5.02-3.61.27-9.26-1.87-11.53-4.65l-.11-.17Z"/><path class="cls-2" d="M588.97,183.88c2.5-2.31,7.31-3.26,10.77-2.89,6.4,1.08.14,7.74-3.98,8.81-3.4,1.48-10.19-1.68-6.96-5.72l.18-.18h-.01Z"/><path class="cls-2" d="M448.37,199.46c1.86,4.44-7.61,7.05-11.01,7.02-4.48.07-5.2-3.06-1.16-5.43,3.13-1.59,9.01-4.06,12.05-1.71l.1.13h.01Z"/><path class="cls-2" d="M457.82,25.19c2.82-1.72,8.57-.45,7.54,3.57-.68,2.18-4.1,4.06-6.84,5.77-1.9.99-4.14,2.89-6.31,2.44-.49-.21-.78-.73-.85-1.56-.18-3.83,2.75-8.3,6.16-10.06l.27-.14h.03Z"/><path class="cls-4" d="M414.26,45.67c4.79-3.74,13.48,12.66,10.56,15.53-4.88,2.96-14.18-11.59-10.68-15.41l.13-.14h0Z"/><path class="cls-2" d="M197.83,275.09c.42-1.45,3.38-2.2,4.88-2.93,5.02-1.87,9.81-4.37,14.56-5.78,9.85-2.64,5.4,2.88.16,4.61-4.41,1.8-10.05,3.74-14.59,4.47-2.85.45-4.79.3-4.99-.3v-.07h-.01Z"/><path class="cls-4" d="M487.97,88.16c4.13,3.78-7.22,7.44-10.23,8.71-5.51,2.3-7.58-.41-4-3.9,3.28-2.81,9.97-6.16,14.08-4.89l.17.08h-.01Z"/><path class="cls-4" d="M455.31,37.28c-2.26-3.31,10.13-8.85,12.67-7.47,1.61.62,1.72,2.68,1.31,4.19-1.4,4.92-9.88,6.89-13.87,3.44l-.11-.14h0Z"/><path class="cls-4" d="M516.03,38.45c-1.52-2.11-3.54-6.64-.41-8.13,2.27-.87,6.86,2.23,8.01,5.33,1.86,5.02-4.67,7.17-7.43,3.04l-.18-.24h.01Z"/><path class="cls-4" d="M526.31,65.11c2.11.08,4.24,1.4,5.4,3.17,2.06,3.03.68,7.64-2.95,7.26-4.64-.17-9.15-9.63-2.72-10.43h.27Z"/><path class="cls-2" d="M505.83,102.63c2.48-1.55,11.07-2.61,11.53,1.68.13,1.78-1.8,4.21-3.98,4.64-3.09.62-7.37-.92-8.61-3.85-.32-.89-.03-1.69.87-2.34l.18-.13Z"/><path class="cls-2" d="M697.52,26.16c-.06,1.55-.32,3.27-1.89,3.65-3.47.25-6.75-8.97-5.13-11.54.94-1.72,3.19-1.23,4.37.08,1.83,1.86,2.58,4.92,2.65,7.5v.31Z"/><path class="cls-2" d="M620.39,220.89c-1.68,2.93-15.15,1.87-18.52,1.11-3.48-1.32,7.88-3.4,9.01-3.51,3.43-.42,8.81-.11,9.51,2.28v.11Z"/><path class="cls-2" d="M401.56,192.68c2.43.76,5.62,1.27,7.42,3.06.68,1.79-2.35,2.8-3.74,3.27-4.45,1.06-10.39,1.31-10.13-2.54.51-2.72,3.44-4.67,6.19-3.85l.25.06h.01Z"/><path class="cls-4" d="M561.92,196.23c-7.77.7-2.72-4.24,1.34-5.2,3.04-.95,8.91-1.52,9.58,1.04-.2,1.01-1.21,1.42-2.28,1.93-2.47,1.03-5.75,1.82-8.34,2.19l-.31.04h.01Z"/><path class="cls-4" d="M357.07,24.29c2.5,1.27,2.16,5.69,1.55,8.98-.3,1.58-2.92,10.12-4.54,7.01-1.13-3.35-1.24-15.07,2.85-16h.16-.01Z"/><path class="cls-2" d="M109.9,301.98c1.66,1.2,4.92,4.75,1.93,6.07-2.42.87-8.06.69-9.71-2.3-2.23-4.4,4.71-6.61,7.56-3.95l.23.15h0Z"/><path class="cls-2" d="M373.93,303.8c2.26,2.18,2.24,17.82-.07,20.5-2.03.71-1.45-20.16,0-20.48h.07Z"/><path class="cls-4" d="M395.37,195.7c2.51,3.78-7.37,8.49-9.85,6.61-3.04-3.82,6.98-9.44,9.73-6.75l.13.14Z"/><path class="cls-2" d="M640.81,283.52c-1.62-.14-4.09-.65-3.43-2.59,1.11-2.57,9.53-5.47,13.22-3.19,1.95,1.14,1.13,3.17-.76,4.12-2.43,1.44-5.92,1.85-8.73,1.68l-.31-.03h0Z"/><path class="cls-4" d="M513.4,159.34c-5.98-4.16,6.51-8.4,9.36-6.23,1.07.83.76,2.21.03,3.27-1.85,2.69-6.15,4.4-9.16,3.06l-.23-.11h0Z"/><path class="cls-2" d="M379.03,291.49c-.24-.01-.48-.35-.71-.96-.97-2.64-1.23-8.78-.68-12.45.37-2.89,1.11-4.38,1.73-3.41,1.64,3.98,1.2,9.67.78,13.86-.25,1.76-.65,2.88-1.06,2.95h-.08.01Z"/><path class="cls-4" d="M768.81,99.26c1.18,4.69-6.77,4.92-8.09,1.4-.86-3.99,6.65-4.6,8.01-1.61l.08.21Z"/><path class="cls-2" d="M426.02,206.23c.27.51.16.58.01,1-1.45,2.24-4.92,4.58-7.71,4.23-2.09-.32-2.71-2.78-1.16-4.14,1.96-1.72,6.64-2.66,8.75-1.21l.1.11h0Z"/><path class="cls-2" d="M296.19,552.61c-1.24-1.07-1.3-5.5-1.55-7.64-.04-2.5-.55-5.81.61-7.91.63-.52,1.04.47,1.34,1.1,1.42,2.61,1.55,12.93-.31,14.45h-.08Z"/><path class="cls-2" d="M597.69,173.57c.07.56-.13.85-.32,1.18-1.38,1.78-4.48,2.42-6.1.56-2.33-2.07-1.96-7.37-.38-9.03.35-.41.86-.58,1.3-.2,1.13,1.14,1.65,3.17,2.88,4.33.86.96,2.27,1.83,2.59,2.99l.03.17h.01Z"/><path class="cls-9" d="M342.59,585.5c.38.35.49,1.14.44,2.14-.17,1.72-.23,3.96-1.35,5.36-1.32,1.68-3.69.3-3.81-1.64-.38-2.14,2.3-6.61,4.61-5.96l.11.1Z"/><path class="cls-2" d="M500.57,120.17c.52.07.89,1.08,1.11,2.65.28,2.31.52,5.24.97,7.64,1.49,7.44-3.26,2.21-4.23-2.35-.45-2.23-.06-4.91.95-6.86.37-.68.75-1.06,1.08-1.07h.11Z"/><path class="cls-2" d="M373.85,345.33c1.89,1.06,2.14,9.22,1.1,11.56-.23.61-.56,1.55-1.2,1.24-1.54-1.51-1.48-11.56,0-12.8h.1Z"/><path class="cls-2" d="M373.99,267.57c.23,0,.45.27.68.73.86,1.8,1.13,6.02.65,8.63-.39,2.64-1.21,4.23-1.79,3.28-1.23-2.93-.86-6.99-.59-10.11.2-1.48.56-2.45.97-2.54h.1-.01Z"/><path class="cls-2" d="M638.77,137.82c.17-1.95,2.48-3.16,4.1-2.03,1.69,1.04,1.73,3.95.2,5.07-1.9,1.49-4.55-.56-4.34-2.76l.03-.28h.01Z"/><path class="cls-2" d="M504.09,31.07c-.66,3.34-9.43,3.82-7.88-.68,1.45-2.83,7.85-2.68,7.91.47l-.03.21Z"/><path class="cls-2" d="M373.97,362.86c2.09.48,2.35,9.68.07,9.25-1.54-1.31-1.86-8.15-.2-9.23h.13Z"/><path class="cls-2" d="M718.09,233.85c-.3-1.69,2.04-3.64,3.4-4.41,2.34-1.65,9.08,1.21,3.76,3.17-1.95.45-5.37,2.17-7.08,1.35l-.08-.1h0Z"/><path class="cls-2" d="M727.39,214.19c-2.65.63-6.58-8.43-4.74-9.63,2.18.27,6.12,7.79,4.85,9.54l-.11.07h0Z"/><path class="cls-2" d="M394.3,390.87c1.95.61,2.33,8.51.63,9.67-3,.08-2.74-9.04-.76-9.66h.13Z"/><path class="cls-2" d="M283.29,23.99c1.1-.87,2.8.03,3.35,1.18.72,1.49.24,3.31-1,4.45-3.45,2.99-4.04-3.81-2.52-5.5l.15-.14h.01Z"/><path class="cls-2" d="M518.36,30c-1.24.78-3.23.51-4.52-.39-1.1-.83-1.04-2.58.4-3.03,1.28-.54,3.21.07,4.04,1.47.35.52.62,1.35.21,1.83l-.13.13Z"/><path class="cls-2" d="M476.69,96.88c-.17-2.1,4.52-3.4,6.12-2.5,1.76,1.9-4.82,4.58-6.03,2.66l-.08-.15h0Z"/><path class="cls-2" d="M376.26,470.16c1.34-.75,5.3-.15,4.67,2.03-.56,1.28-3.41,1.17-4.52-.23-.38-.45-.78-1.18-.3-1.68l.14-.11h.01Z"/><path class="cls-2" d="M526.23,278.23c.11-1.92,2.21-1.76,3.54-1,2.1.93.75,2.5-.8,2.61-.96.08-2.33-.49-2.68-1.38l-.07-.23h.01Z"/><path class="cls-2" d="M476.44,172.68c-.04-1.65,2.28-2.64,3.76-1.99,1,.37,1.4,1.24.69,1.82-1.06.76-3.34,1.18-4.37.34l-.08-.16h0Z"/><path class="cls-2" d="M380.15,375.34c-2.65.27-3.54-2.85-.58-3.09,1.9-.03,2.66,2.26.83,3.02l-.25.06h0Z"/><path class="cls-9" d="M383.07,480.92c1.13.86-.15,6.81-1.75,3.89-.59-1.32.03-3.79,1.61-3.96l.14.07Z"/><path class="cls-2" d="M380.42,347.41c-.99-.25-1.21-1.96-1.06-2.85.17-.93.92-1.01,1.45-.25.65.82.77,2.52-.21,3.07l-.18.03Z"/><path class="cls-2" d="M452.87,201.67c-.11-1.47,2.98-2.55,3.55-.72-.08,1.37-2.69,1.82-3.48.89l-.07-.18h0Z"/><path class="cls-2" d="M592.28,228.96c.87-.51,3.11,3.68,1.63,3.62-1.16-.52-2.27-2.34-1.76-3.52l.13-.08h0Z"/><path class="cls-2" d="M501.74,111.06c1.16.31,1.27,3.28-.35,3.06-1.03-.58-.89-2.66.16-3.07h.2Z"/><path class="cls-2" d="M529.64,97.32c.06-.58.99-1.54,1.47-1.61.38-.06.7.38.76.94.24,1.4-1.41,1.79-2.19.86l-.06-.2h.01Z"/><path class="cls-2" d="M297.53,572.78c-.97-.28-1.23-2.68-.69-3.28.27-.3.77-.07,1.14.44.68.72.56,2.4-.27,2.82l-.18.03Z"/><path class="cls-2" d="M294.82,39.24c-.63-.92.07-3.69,1.52-2.48,1.38,1,.08,3.24-1.37,2.61l-.14-.14h-.01Z"/><path class="cls-9" d="M339.86,613.91c-.35,1.2-3.48,1.69-2.86-.2.44-1.62,2.24-1.11,2.85,0v.2h.01Z"/><path class="cls-4" d="M774.78,182.07c3.4,1.34,5.89,5.74,6.36,9.43,1.1,6.88-5.61,9.37-10.13,4.75-4.75-3.92-3.92-16.7,3.55-14.27l.23.08Z"/><path class="cls-2" d="M758.76,177.4c.17.11.32.77.41,1.2.06.42-.23.54-.76.39-1.71-.27-.56-1.11.21-1.63l.13.03h.01Z"/><path class="cls-3" d="M618.06,234.53c6.02,2.89.86,22.17-6.06,21.51-8.39-2.4-2.68-23.92,5.88-21.6l.18.07h0Z"/><path class="cls-3" d="M149.2,615.31c-1.3-1.82-2.35-5.92-2.76-10.64-1.38-101.25-4.62-202.6-5.37-303.8.1-4.62.45-15.59,3.27-16.53,1.8.35,2.59,9.18,2.71,12.31,4.2,81.15,4.43,162.16,5.75,243.27,2.02,19.27,2.64,38.83,2.31,58.34.28,4.37-.7,22.47-5.84,17.14l-.07-.1h0Z"/><path class="cls-4" d="M154.79,524.49c-1.79-2.75-2.4-10.39-2.48-14.69-.21-10.16-.25-20.45.17-30.62.37-10.8-.21-20.11-1.21-30.98-2.3-42.94-1.44-85.93-2.14-128.97.27-9.85-.17-21.4.69-31.66.89-8.88,3.34-8.39,4.36.1,1.88,74.32,6.72,149.39,5.41,224.09-.17,3.68-1.34,16.41-4.75,12.81l-.06-.1h.01Z"/><path class="cls-4" d="M216.38,540.15c.54,19.24,1.56,39.09.25,58.5-.73,7.23-2.88,9.95-3.82-.25-.83-60.43-.08-121.07-.28-181.56.1-3.34.24-10.63,1.32-12.04.11-.06.23.03.34.25.24.56.37,1.17.48,1.89.53,3.04.86,9.56.83,15.72.04,9.42,0,18.83-.03,28.24-.14,29.56-.35,59.58.9,88.95v.3h0Z"/><path class="cls-3" d="M108.02,301.76c-7.56-2.4-.11-6.99,4.47-8.94,6.79-2.54,20.28-8.88,24.98-.52,2.37,5.07-1.96,10.4-7.26,10.88-6.64.8-15.66-.13-21.96-1.37l-.23-.07h0Z"/><path class="cls-3" d="M215.48,263.4c-.35,1.11-3.1,2.82-7.16,4.4-6.29,2.38-13.77,4.78-20.5,6.02-5.77,1.34-16.34.47-4.23-4.71,4.75-1.71,30.97-10.5,31.91-5.81l-.03.08h0Z"/><path class="cls-4" d="M214.31,380.69c.85,2.99,1.71,7.6,2.02,10.97.37,4.26-.87,9.18-1.61,8.7-.31-.25-.34-.63-.44-1.13-.38-3.06-.17-6.53-.23-9.77.13-2.41-.25-7.77.21-8.8l.03.04h.01Z"/><path class="cls-4" d="M168.71,271.98c1.03-.1,1.73,1.21.44,1.56-1.07.16-1.4-1.01-.63-1.49l.2-.07Z"/><path class="cls-2" d="M287.23,634.51c-1.58-6.2.65-12.73.55-19.2.56-16.22-2.02-33.39,1.49-49.31,2.41-6.39,3.57,3.9,3.68,6.37.52,15.27-.1,30.62-.06,45.94-.03,3.68-.24,7.82-1.33,11.22-.76,2.34-2.78,8.33-4.3,5.1l-.04-.11h0Z"/><path class="cls-2" d="M555.62,140.05l.1.06h0"/><path class="cls-7" d="M406.28,483.67c5.05,2.24-3.45,4.52-6.67,4.85-3.98.56-7.7.96-10.12-.9-1.41-1.11-.76-2.72.76-3.54,4.24-2.14,11.53-2,15.8-.51l.21.08h.01Z"/><path class="cls-9" d="M404.48,481.85c-1.66,2.02-6.19,1.55-8.92,1.85-3.03.47-9.25-.52-5.3-4.23,3.2-2.51,11.76-3.41,14.34.16.42.68.44,1.44,0,2.09l-.11.14Z"/><path class="cls-9" d="M398.71,488.68c.93-1.28,3.17-1.35,4.68-1.85,3-.66,7.33-1.62,9.33-.65,2.9,1.49-.2,3.81-2.37,4.07-2.62.51-10.4.85-11.66-1.48v-.1h.01Z"/><path class="cls-9" d="M389.44,487.37c1.68-.06,2.3,2.33.89,3.31-2.43,1.55-3.31-2.42-1.11-3.26l.24-.06h-.01Z"/><path class="cls-2" d="M126.61,301.61c.85-.71,2.47-.27,3.16.48.68.66.63,1.47-.18,1.56-1.08.13-3.1-.65-3.06-1.89l.08-.16Z"/><path class="cls-2" d="M152.5,459.18c.68-.42,1.92.11,2.34.63.71.87.08,1.86-.79,2.48-.44.35-.86.37-1.35.27-.69-.49-.94-2.52-.37-3.24l.17-.14Z"/><path class="cls-6" d="M487.22,611.19c-.93-4.09,1.27-9.66,2.41-13.93,4.89-15.87,9.97-34.07,9.18-51.13-.62-9.6-5.58-17.96-10.13-26.7-5.48-10.06-8.13-23.5-1.55-33.25,5.67-8.95,17.83-14.35,27.92-11.84,9.67,2.21,15.11,11.38,19.44,19.59,8.54,15.69,18.47,30.6,23.13,47.97,2.76,9.71,7.25,18.89,9.8,28.63,2.03,8.26,1.37,16.32,2.71,24.98,1.18,9.87,8.2,19.82,1.34,27.91-12.11,9.05-12-17.04-13.41-24.61-1.88-14.72-4.41-27.46-6.64-42.46-1.97-9.87-2.75-23.01-12.87-27.98-5.02-2.26-12.09-1.8-17.96.99-10.81,4.68-12.39,16.62-13.79,26.95-1.66,11.53-4.89,23.36-8.08,34.38-1.52,5.2-3.3,10.7-6.02,15.31-1.23,1.93-3.96,6.77-5.5,5.23l-.03-.06h.04ZM496.65,489.21c-8.61,8.15-4.99,28.43,5.82,32.38,4.85.77,3.78-6.17,4.58-9.19.65-4.12,2.4-3.93,6-1.59,4.37,2.79,12.21,8.8,16.44,2.79,3.61-6.09-.21-16.44-4.55-23.43-5.84-9.78-20.66-8.39-28.09-1.18l-.21.21h.01Z"/><path class="cls-6" d="M350.21,600.52c-12.19-8.81-7.4-30.43-2.93-41.02,1.42-3.09,3.92-5.22,4.34.65.37,4.07-.31,10.32-.25,14.83-.3,21.2,17.7,21.59,34.25,26.26,5.02.9,18.03,5.51,21.47,1.45,1.66-2.41,1.16-7.32,3.45-9.22,5.64-3.17,14.11,2.16,19-3.26,7.4-10.61,1.01-31.76,2.31-44.67,1.82-19.47,6.87,1.32,7.65,7.98,1.8,11.8,3.92,24.99-.42,36.75-2.59,7.37-7.68,12.98-10.49,19.65-2.07,4.68-3.4,10.33-4.61,15.08-.49,1.66-.9,1.97-1.56,1-.96-1.49-2.41-4.51-3.82-6.19-3.28-4.61-9.85-6.29-14.66-3.27-2.69,1.45-5.5,3.88-8.26,4.68-3,.85-5.54.65-8.78-.49-4.52-1.65-8.88-4.64-13.05-7.15-7.78-4.96-16.1-7.74-23.43-12.94l-.21-.16v.03Z"/><path class="cls-6" d="M428.65,633.95c-.4,4.13-6.47,8.33-9.56,11.4-11.78,9.35-3.54,21.61-4.43,33.53-.32,4.95-3.45,9.33-8.39,10.52-4.5,1.44-9.82,1.25-13.87,3.93-6.23,4.85-6.71,12.8-8.8,21.12-1.65,8.47-3.07,16.89-2.31,25.5.38,6.64,2.47,14.03.72,20.45-1.3,4.48-4.69,6.48-8.57,5.92-1.42-.2-3.45-.76-3.21-2.44.65-2.56,4.65-5.43,4.27-8.1-.97-2.76-3.96-4.4-6.1-6.4-3.23-2.62-5.19-5.27-5.61-9.77-.54-5.31.27-11.02.51-16.41.24-5.94.52-12,1.59-14.98,1.34-4.19,3.55-1.86,4.44,1.28,1.18,3.69,1.47,8.63,1.42,12.77-1.45,33.2,8.4-25.08,10.16-29.9,2.16-7.94,4.51-19.92,9.29-23.13,4.09-1.86,6.51,3.51,8.94,6.02,6.65,8.39,9.63,5.39,8.5-4.02-.97-7.5-5.12-17.47-6.91-26.01-1.04-4.95-2.58-11.01-1.27-15.72,1.01-2.24,2.75.37,4.07,1.44,1.25,1.23,2.76,2.64,4.3,3.61,5.36,4.13,13.7-1.85,18.59-1.82.9-.03,1.99.17,2.21,1.11v.08Z"/><path class="cls-6" d="M516.88,721.9c-5.95-1.87-10.74-8.84-14.97-13.52-6.41-7.61-13.53-13.59-23.12-14.72-6.53-.83-14.11-.31-19.44-4.54-6.72-5.36-9.53-16.13-9.6-23.82-.07-2.4.61-4.65,3.21-5.13,2.97-.69,6.75-.62,9.97-1.21,9.44-1.78,18.3-8.08,27.21-11.88,7.87-3.83,22.91-7.96,10.11,1.71-9.05,7.06-21.38,12.56-30.73,19.35-6.37,4.89-6.48,9.84,2.13,10.9,13.59.87,29.63-3.26,43.46-4.79,4.05-.53,8.3-1.21,12.33-.68,3.09.56,7.89,1.17,6.34,4.48-2.85,4.44-8.57,7.36-13.55,9.33-6.02,2.8-17.55,4.2-14.24,12,.75,3.8,15.79,20.88,11,22.54h-.11Z"/><path class="cls-6" d="M625.25,745.45c2.9,2.79,3.59,13.25,4.16,19.32.92,8.42,2.16,18.1-1.32,25.47-3.11,7.54-14.94,18.48-23.75,14.65-7.29-4.91-6.34-17.21-7.85-25.16-1.79-15.59-4.03-30.94-5.15-46.55-1.08-20.26-1.69-33.48-22.89-38.65-7.17-2-14.91-3.14-22.05-4.95-8.64-1.95-15.01-6.54-2.35-5.51,12.26,1.58,24.17,6.15,36.28,8.94,15.17,4.03,15.75,14.1,16.73,27.36,1.28,9.3,2.38,18.71,2.92,28.04.73,9.26,1.85,18.31,3.58,27.33.95,5.03,1.72,10.23,3.81,14.63,4.98,9.68,12.24,2.18,14.24-4.98,2.9-8.51.92-18.38.51-27.53,0-2.14-.42-14.14,3.07-12.49l.07.06h0Z"/><path class="cls-9" d="M483.12,665.73c-.17-.45.51-1.37,1.92-2.59,3.38-2.8,8.25-5.72,11.93-8.6,8.26-6.96,17.83-9.33,26.15-16.51,6.41-6.36,9.36-17.39,7.87-26.26-1.06-4.06-2.23-3.03-5.88.2-3.72,3.47-7.89,8.37-13.21,8.84-2.9.34-5.31-1.24-3.96-4.45,2.8-6.63,11.14-14.65,16.96-19.48,2.71-2.02,6.4-4.13,8.68-.86,2.52,3.37,3.85,14.32,4.41,20.75,1.49,9.18-3.21,27.12,10.7,23.1,4.44-1.35,9.13-5.19,13.25-7.05,1.25-.47,2.26-.99,3.23-.52.41.34.27.92.04,1.44-.76,2.69-8.71,9.63-13.87,11.46-14.84,6.67-31.1,8.08-46.26,13.55-6.07,2.06-12.78,5.19-18.75,6.92-1.86.51-2.99.55-3.2.1v-.04h0Z"/><path class="cls-6" d="M382.09,487.58c2.83-15.39,19.64-17.49,30.74-9.33,15.39,12.14,8.74,42.39-3.48,54.23-1.76,1.61-4.05,2.98-6.2,3.54-3.44,1-9.04.42-4.4-3.89,3.35-3.27,8.06-5.86,11.47-10.83,5.81-7.81,8.03-24.37-5.58-23.67-13.24,1.23-16.2,16.45-21.12,24.46-1.16,1.78-2.89,2.1-3.64-.28-1.71-5.95-.21-13.39.2-19.71.51-4.91.9-9.84,1.96-14.25l.07-.27h-.03ZM387.21,486.26c1.59,5.13,8.18,4.31,12.98,4.51,7.36-.07,19.58-.3,7.5-9.2-4.16-2.66-9.64-5.22-14.1-3.61-3.27,1.11-6.79,4.57-6.4,8.13l.03.18h-.01Z"/><path class="cls-9" d="M594.55,758.16c3.64,3.13-1.32,6.92-6.44,6.96-1.44,0-2.85-.24-4.24-.59-8.06-1.96-15.72-7.33-23.7-10.45-4.37-1.8-9.04-2.86-13.5-4.24-11.78-3.02-20.79-13.46-27.21-23.78-4.43-8.18,2.44-5.09,6.33-1.21,13.07,13.32,20.9,14.53,38.1,19.52,4.36,1.42,8.51,3.37,12.63,5.34,7.02,3.44,12.95,4.37,17.93,8.33l.11.1h-.01Z"/><path class="cls-6" d="M311.43,626.28c-12.84,1.3,2.23-7.97,7.65-9.25,8.77-2.55,29.14-8.92,35.59-3.83,4.14,3.65,4.58,9.16,6.64,14.31,1.21,3.45,2.89,6.84,4.99,9.78,2.97,4.19,6.36,7.64,7.41,9.68,2.19,3.81-4.45,2.35-6.75,1.65-5.54-1.78-10.22-6.1-12.93-11.25-2.16-3.93-3.04-9.66-5.22-13.19-3.76-7.79-12.43-5.6-19.19-3.2-5.69,1.72-12.66,4.48-17.99,5.29l-.23.03h0Z"/><path class="cls-6" d="M684.52,691.94c2.27,4-11.69,13.28-15.29,16.08-5.81,4.07-11.67,8.19-18.68,9.4-7.37,1.51-16.45-1.86-22.99-1.69-2.41.07-4.88.8-7.06,1.61-1.62.54-3.31,1.23-4.61.18-2.13-2.37-1.34-6.47,1.2-9.53,1.58-1.73,3.83-2.58,6.64-2.54,4.62.06,10.23,1.66,15.03,2.26,13.97,2.58,22.82-5.06,34.28-12.26,3.27-1.68,7.95-4.89,11.42-3.55l.07.06h0Z"/><path class="cls-6" d="M510.48,614.94c.41,8.53-.92,14.79-6.33,20.17-6.65,6.3-19.1,11.46-28.29,8.12-4.85-1.47-7.05-7.16-4.12-11.3,2.95-4.61,5.91-3.47,9.53-.61,6.16,4.24,13.56-2.71,16.46-8.16,3.54-6.02,4.52-18.71,7.15-22.79,1.16-2.06,2.82-.87,3.54.85,1.38,2.72,1.76,8.46,2.04,13.42v.3h.01Z"/><path class="cls-6" d="M539.35,748.24c4.59-1.4-.66,7.44-2.74,9.6-7.2,8.12-16.25,17.48-26.3,21.13-4.22,1.42-9.23,1.48-12.98-1.06-4.34-2.58-5.81-9.39-2.45-13.01,4.68-4.48,9.32,5.64,15.18,3.95,11.84-2.78,18.86-15.49,29.17-20.57l.14-.04h-.01Z"/><path class="cls-9" d="M686.88,692.66c-.61.69-2.33.99-4.74.75-5.55-.59-11.3-3.11-16.94-4.06-8.65-1.54-17.62-1.52-26.2-3.21-3.98-.9-11.22-2.78-10.77-7.58,2.51-4.74,11.76-3.11,16.42-2.5,8.78,1.72,17.37,4.34,26.06,6.64,3.95.97,17.38,5.19,16.22,9.88l-.06.07h0Z"/><path class="cls-6" d="M512.03,743.7c1.69,3.98,3.21,7.63,1.14,10.88-2.28,2.83-6.41,1.37-8.63-.96-6.72-7.39-8.19-18.73-14.34-27.18-1.47-2.55-9.67-13.64-4.78-14.74,5.22.03,13.42,11.83,17.08,17.13,3.35,4.78,6.91,9.58,9.39,14.6l.14.28h-.01Z"/><path class="cls-6" d="M341.2,680.62c.42-2.17,2.37-5.07,4.55-3.51,1.51,1.06,2.57,4.34,2.65,8.2-.08,7.19-.25,14.98,2.86,21.57,1.42,3.13,4.09,4.99,6.64,6.51,1.66,1.18,6.34,2.97,3.54,5.1-3.76,2.27-9.57,1.82-12.88-1.33-4.93-4.37-5.5-13.72-6.75-22.31-.52-4.51-1.41-9.68-.62-14.04l.04-.21h-.03Z"/><path class="cls-9" d="M378.99,514.35c3.14,1.83,1.01,6.23-.63,8.58-4.4,6.27-12.77,8.68-16.68,16.7-2.55,4.65-3.98,10.81-6.27,15.36-.97,1.92-1.89,2.89-2.65,2.72-3.65-2.69-.76-14.97.75-19.02,2.85-8.26,7.54-14.03,13.91-19.04,3.2-2.3,7.49-6.41,11.45-5.37l.13.06Z"/><path class="cls-9" d="M619.99,677.5c-4.22,4.34-15.55.37-21.54-1.48-3.76-1.28-17.68-5.1-16.83-9.53,1.11-2.76,12.6-1.82,17.04-.58,5.14,1.14,23.79,4.43,21.41,11.48l-.08.11Z"/><path class="cls-9" d="M385.66,706.05c-.53-.48-.49-2.44-.08-5.57.83-4.93,1.96-11.04,6.37-13.91,7.89-4.1,20.4,1.66,20.82,11.06.21,1.68.08,4.62-1.03,5.39-1,.63-2.09-.44-3.17-.01-.72.23-1.17.95-1.51,1.62-1.08,2.2-2.14,7.33-2.97,8.47-.86.94-1.71-1.27-2.24-1.96-1.87-2.87-3.67-7.22-7.3-8.1-3.19-.48-6.99,3.24-8.44,3.17-.16,0-.28-.04-.4-.13l-.06-.04h.01Z"/><path class="cls-9" d="M616.79,719.68c1.31-2.69,5.15-9.71,8.2-8.73,1.64,1.55,1.56,6.39,1.33,12.21-.45,5.85-.04,15.59-5.98,17.48-2.79.44-4.74-1.9-5.77-4.48-2.02-5.16-.13-11.24,2.07-16.18l.14-.3Z"/><path class="cls-6" d="M406.96,714.12c-2.19-3.09-3.13-7.71-2.37-11.35.23-1.21,1.03-2.5,2.2-1.49,1.92,1.24,6.05,8.22,7.85,5.06,1.85-2.69-.73-19.88,5.37-11.53,2.71,4.19,4.23,10.29,2.34,15.14-2.55,6.71-11.22,10.22-15.27,4.37l-.16-.2h.03Z"/><path class="cls-9" d="M508.89,690.27c3.27-4.89,20.19,12.49,24.84,15.52,12.63,10.05,5.31,12.08-4.58,7.51-7.4-3.47-21.38-14.66-20.3-22.92l.04-.11Z"/><path class="cls-9" d="M439.06,557.83c-1-.31-1.13-2.89-1.65-4.28-1.14-5.1-3.99-10.78-7.75-14.05-1.86-1.92-4.02-3.5-5.38-5.71-1.78-2.68.25-6.19,2.92-7.6,3.12-1.72,6.15-.75,8.77,3,4.05,5.46,6.09,23.67,3.14,28.64h-.04Z"/><path class="cls-9" d="M409.66,534.23c-.63-1.33,1.42-6.22,3.28-9.09,3.28-5.17,6.37-11.66,7.92-17.62.68-1.82,2.62-11.05,3.58-6.5,1.48,11.18,2.48,26.91-8.79,33.11-1.61.87-5.17,2.2-5.98.21l-.03-.11h.01Z"/><path class="cls-9" d="M451.53,663.94c4.92,4.65-3.96,4.89-9.95,3.61-7.19-1.54-18.8-4.55-23.36-8.03-1.62-1.04-3.61-3.58-.69-4.34,3.62-.85,8.12.2,12.31,1.13,6.61,1.75,16.86,3.55,21.54,7.5l.16.13h0Z"/><path class="cls-9" d="M619.96,703.35c1.8,6.65-11.5,4.26-15.53,5.48-2.82.48-5.47,2.2-7.68,3.58-2.42,1.71-3.5.92-3.4-1.9.16-6.75,5.58-14.93,14-13.79,4.45.47,10.76,2.4,12.56,6.47l.06.16Z"/><path class="cls-9" d="M430.16,636.24c-12.8-.89-10.73-7.41-9.88-18,.48-3.93.73-7.09,3.44-8.16,2.83-1.06,6.26.17,8.3,2.27,3.03,3.27,2.4,7.44,2.85,11.8.18,2.96.41,6.13.59,8.32.52,3.4-2.24,3.93-5.05,3.78h-.25Z"/><path class="cls-9" d="M570.39,618.96c4.38-4.44,12.91,15.69,14.7,19.79,3.58,9.01-2,11.08-6.89,4.99-3.76-5-10.09-19.11-7.88-24.65l.07-.13Z"/><path class="cls-6" d="M435.32,633.75c1.44-5.89,21.95-.06,22.91,4,.47,7.36-22.72,1.01-22.91-3.86v-.14Z"/><path class="cls-9" d="M357.93,614.7c-4.48,1.95-13.1,1.38-13.15-4.65-.11-4.02,5.43-9.19,10.12-9.75,3.47-.68,7.61.31,11.08,1.83,2.75,1.23,10.7,5.12,9.47,6.44-5.14,2.45-11.97,3.68-17.3,6.05l-.23.08Z"/><path class="cls-6" d="M535.08,715.32c3.14-3.24,7.98-1.06,8.3,3.1.35,4.21-2.93,7.77-6.55,10.67-2.51,2.16-8.26,4.47-8.19-.96.37-4.48,3.07-9.56,6.24-12.62l.2-.18h0Z"/><path class="cls-6" d="M555.8,671.99c2.41-4.89,13.43-13.24,18.42-11.59,1.27,1.33-.8,3.26-2.38,5.06-1.25,1.3-2.71,2.55-4.07,3.78-4.03,3.51-7.47,7.74-10.06,7.92-2.76.28-3.13-2.89-2.02-4.95l.11-.23Z"/><path class="cls-9" d="M535.18,677.97c-2.23-1.24-3.28-3.72-1.25-5.44,4.1-2.75,14.59-.37,17.08,2.88,2.24,2.8-1.01,4.58-3.89,4.59-3.52.25-8.82-.1-11.74-1.9l-.21-.13h.01Z"/><path class="cls-9" d="M407.13,716.48c.8-2.57,15.52-4.19,15.04-.13-.76,4.02-9.05,6.4-12.88,3.88-1.38-.72-2.83-2.1-2.24-3.58l.08-.17Z"/><path class="cls-9" d="M456.55,658.2c-5.41,1.65-5.2-4.47-2.18-7.19,4.43-4.93,13.01-5.16,9.27.86-1.49,2.44-4.16,5.2-6.84,6.23l-.25.1Z"/><path class="cls-6" d="M526.79,620.98c-1.93-2.68-1.49-12.52,1.76-14.49,3.91-1.52,4.05,3.93,3.27,7.1-.52,2.65-2.57,8.77-4.92,7.49l-.11-.1Z"/><path class="cls-9" d="M502.06,750.25c5.3-1.59,7.79,10.18,5.4,12.77-1.68,1.47-3.99-.01-6.12-.18-2.17-.51-4.02-.34-4.02-2.27.25-3.45,1.65-8.25,4.54-10.23l.18-.1h.01Z"/><path class="cls-9" d="M484.29,625.88c-8.75.59-2.09-12.62,3.07-13,3.34-.49,4.34,3.41,3.3,6.05-.95,2.83-3.2,6.2-6.13,6.89l-.25.06h.01Z"/><path class="cls-6" d="M619.89,677.32c-.73-1.04-.71-2.35.21-3.23,2.1-2.62,12.22-.23,12.69,2.52.1,1.25-1.08,2.03-2.2,2.55-3.23,1.34-8.3,1.23-10.56-1.65l-.14-.2Z"/><path class="cls-9" d="M362.43,716.89c-.63-3.78-.37-8.4,1.37-11.74.37-.61.7-1,1.25-.59,2.27,2.47,3.71,18.78,1.92,21.76-2.37.99-4.23-7.16-4.48-9.09l-.06-.34Z"/><path class="cls-9" d="M381.11,488.63c1.38-.21.73,23.62-.96,21.67-1.41-3.85-1.35-16.51.21-20.57.24-.72.48-1.1.71-1.1h.06-.01Z"/><path class="cls-6" d="M418.01,532.88c-.89-1.72-.48-3.54,1.01-4.67,2.66-1.97,7.01,0,7.6,3.07,1.04,4.98-6.64,5.47-8.49,1.82l-.13-.23Z"/><path class="cls-9" d="M417.45,694.69c-2.62.52-4.26-3.64-4.47-5.82-.27-2.37.54-10.21,2.85-8.44,2.09,2.9,2.07,7.53,2.42,10.94.07,1.65-.1,2.83-.68,3.26l-.13.07Z"/><path class="cls-9" d="M510.47,740.64c-2.65.73-9.12-8.75-7.79-11.18,3.4-1.75,9.87,9.03,7.91,11.11l-.11.07Z"/><path class="cls-6" d="M523.18,640.72c.16,1.92-2.76,3.1-4.43,3.33-2.04.47-5.2-1.16-4.79-2.83.48-1.58,2.47-1.55,3.93-1.61,1.58.1,4.34-.23,5.22.96l.06.14h.01Z"/><path class="cls-9" d="M366.04,748.41c3.81-2.26,7.02,3.64,3.82,6.03-3.19,1.71-6.48-3.64-3.99-5.91l.17-.13Z"/><path class="cls-9" d="M575.12,663.11c-3.59-1.55-1.51-6.84,1.78-7.49,2.89-.82,4.71,2.83,2.27,5.65-.87,1.11-2.38,2.21-3.81,1.9l-.23-.06h-.01Z"/><path class="cls-9" d="M343.92,595.96c1.63-.59,3.93,2.04,4.95,3.23,1.11,1.83-1.3,1.4-2.57.9-1.52-.53-3.3-2.4-2.51-4l.13-.11h0Z"/><path class="cls-9" d="M555.39,670.89c.92,1.21,1.14,4.4-.04,5.61-.93.9-2.51.14-2.65-1.44-.23-1.45.69-4.91,2.57-4.27l.13.1Z"/><path class="cls-6" d="M552.61,672.75c.54.97.41,3.24-.42,4.1-.54.48-1.42.03-1.82-.85-.82-1.45.45-3.82,2.11-3.35l.13.1Z"/><path class="cls-9" d="M533.06,731.45c-.32-1.65,2.35-3.65,3.88-3.99.79-.13,1.07.45.72,1.34-.62,1.52-2.76,3.44-4.48,2.78l-.1-.11h-.01Z"/><path class="cls-9" d="M366.12,729.67c.53.65.01,3.75-1.31,3-.47-.42-.69-1.18-.45-1.72.25-.65,1.2-1.49,1.64-1.35l.14.08h-.01Z"/><path class="cls-9" d="M364.5,735.87c.59.73-.1,3.23-1.07,3.16-1.69-.69-.61-3.34.93-3.24l.14.08Z"/><path class="cls-9" d="M428.55,603.37c.1-.2.42-.34.86-.47.69-.13,2.59-1.11,2.16.1-.34.63-.9,1.4-1.61,1.38-.58-.07-1.16-.2-1.44-.85l.03-.16h0Z"/><path class="cls-9" d="M503.25,503.44c-7.09-4.76-8.95-14.87.49-18.37,4.88-2.2,12.73-2.38,16.68-.86,1.82.58,4.24,2.24,2.57,4.19-2.43,2.85-8.82,3.33-12.35,5.17-4.44,1.69-2.1,12.69-7.23,9.94l-.16-.08h0Z"/><path class="cls-9" d="M404.13,596.13c-8.33,1.66-20.14-.42-26.77-5.26-4.82-3.99.93-12.18,6.67-11.4,6.65,1.01,12.25,6.07,19.17,6.78,2.82.54,5.75.59,8.37,1.34.76.25,1.38.53,1.75,1.17.9,2.81-3.31,5.72-8.88,7.29l-.31.07h0Z"/><path class="cls-9" d="M355.83,563.49c1.54.89,1.27,3.48-.04,4.51-.58.51-1.2.56-1.52.06-.63-1.24-.21-4.4,1.37-4.61l.2.04Z"/><path class="cls-9" d="M420.32,622.68c-1.65.11-2.55-2.19-2.03-3.65.3-1.04,1.03-1.45,1.59-.76.7,1.07,1.47,3.26.61,4.33l-.16.08h-.01Z"/><path class="cls-8" d="M397.39,611.62c-.2-.07-.85-.23-.9-.42.44-1.03,1.01,0,1.01.48l-.11-.06Z"/><path class="cls-9" d="M370.99,638.27c1.01-.65,2.35-.38,3.52-.03,6.39,1.82,18.04,10.11,19.44,18.72.79,4.26-3.69,2.24-6.22,1.55-5.09-1.8-11.3-1.44-8.73,5.6.85,2.33,2.69,4.91,3.96,6.96.72,1.31,1.62,2.52.92,3.86-.89,1.58-5.16,2.86-8.58,5.82-4.26,3.4-5.29,9.39-7.39,14.01-2.69,5.76-9.64.52-13.76-1-2.62-1.35-5.03-2.64-6.91-4.57-.44-.49-.55-.83-.47-1.38.16-.52.58-.9,1.03-1.3,2.21-1.82,7.88-5.1,11.39-9.32,1.35-1.61,2.45-3.31,3.43-5.22,1.86-3.65,3.06-8.22,4.52-12.36,1.21-3.57,2.62-7.53,2.75-11.21.07-1.31.06-2.72,0-4.02-.01-2-.39-5.02,1-6.09l.07-.06h.01Z"/><path class="cls-8" d="M371.07,754.79c-1-2.48-1-5.77.21-8.15,3.74-6.65,11.09,2.48,9.68,7.99-.96,5.75-7.89,5.69-9.78.44l-.11-.27h0Z"/><path class="cls-9" d="M394.36,665.58c1.65,0,2.64,5.27.56,5.27-1.68-.28-2.06-4.51-.73-5.23l.17-.04Z"/><path class="cls-9" d="M599.74,746.56c.58.04.77.82,1.01,1.32.77,2.02,1.73,6.44,3.64,9.66,1.25,2.28,3.06,4.48,4.47,6.57.66,1.01,1.23,2.2.93,3.33-.61,2.14-3.13,3.04-5.19,2.71-4.28-.53-5.48-7.53-5.89-12.02-.3-2.89-.69-10.15.97-11.54h.07-.01Z"/><path class="cls-9" d="M619.19,771.82c-2.76-.86-2.59-6.37-2.06-9.09.21-1.69,1.42-4.62,2.51-3.33,2,2.17,2.34,10.93-.3,12.41h-.16Z"/><path class="cls-9" d="M603.32,776.02c.8-.04,1.58,1.04,1.65,1.82,0,.71-.1,1.44-.97,1.64-1.04-.11-1.49-2.71-.83-3.37l.16-.07h0Z"/><path class="cls-6" d="M517.13,609.87c-1.08-.52,1.3-7.13,2.59-11.12,3.26-8.67,2.33-18.72,4.43-27.49.55-2.33,2.54-5.51,4.82-3.07,3.3,2.93,5.17,14.63,3.47,21.1-1.35,7.32-6.15,14.73-11.76,19.24-1.73,1.35-2.97,1.87-3.5,1.4l-.06-.06Z"/><path class="cls-9" d="M363.15,646.22c-1.06,1.58-6.72.13-5.99-2.1,1.52-2.37,6.31-.27,6.06,1.93l-.07.17Z"/><path class="cls-8" d="M412.48,695.73c3.44,1.85,6.26,8.51,5.5,12.53-.38,1.9-2.26,3.47-4.16,2.86-2.42-.75-2.61-5.4-3-9.4.03-1.58-1.13-6.5,1.51-6.05l.16.06Z"/><path class="cls-6" d="M389.92,579.72c-4.71-1.24-11.42-4.69-15.77-1.78-2.09,1.92-1.66,7.29-2.89,9.09-1.58,1.97-3.99-.35-5.41-1.96-6.09-7.01-1.73-19.61,7.79-20.07,4.64-.38,9.84,2.86,15.66,5.02,5.13,2.04,10.66,2.64,15.83,1.03,3.72-.9,7.32-2.69,11.09-2.52,6.31.48,6.34,8.35,1.18,11.04-3.69,2.04-8.13,2.26-12.32,2.37-4.88.14-9.98-.38-14.86-2.13l-.3-.1h-.01Z"/><path class="cls-9" d="M376.81,565.2c-1.75,1.58-7.43,1.65-7.7-1.27-.3-2.62,1.03-6.6,3.48-7.41,2.95-.89,6.19,5.98,4.34,8.56l-.13.14h0Z"/><path class="cls-8" d="M378.89,585.38c-3.09-.48-6.5-3-7.7-5.95-1.16-2.5-.23-5.46,2.52-6.12,4.2-1.17,11.18,2.65,11.78,7.1.34,3.27-3.37,5.41-6.34,4.99l-.28-.04h.01Z"/></g></svg>