<?xml version="1.0" encoding="utf-8"?>
<!-- Generator: Adobe Illustrator 27.9.0, SVG Export Plug-In . SVG Version: 6.00 Build 0)  -->
<svg version="1.1" id="Layer_1" xmlns="http://www.w3.org/2000/svg" xmlns:xlink="http://www.w3.org/1999/xlink" x="0px" y="0px"
	 viewBox="0 0 841.9 595.3" style="enable-background:new 0 0 841.9 595.3;" xml:space="preserve">
<style type="text/css">
	.st0{fill:#FFFFFF;}
</style>
<g id="J4sUs3.tif">
	<g>
		<path class="st0" d="M138.3,0c198.4,0,396.9,0,595.3,0c0,198.4,0,396.9,0,595.3c-198.4,0-396.9,0-595.3,0
			C138.3,396.9,138.3,198.4,138.3,0z M732.5,298.2c-0.3-5.9-0.7-14-1.3-22.1c-1.9-26.2-7.6-51.6-16.6-76.3
			c-17.9-49.4-47.5-90.7-86.9-125C566.4,21.5,495.1-2.8,414,1.7c-20.8,1.2-41.3,4.7-61.3,10.5C295.2,28.7,247,59.7,208.4,105.3
			c-40.7,48-63.4,103.7-68.7,166.4c-1.8,20.8-1.1,41.6,1.6,62.3c3.8,29.1,11.8,56.9,24,83.6c15.6,34.2,37.4,64.1,64.2,90.4
			c52.4,51.5,115.1,80.3,188.3,85.9c27.7,2.1,55.2,0,82.3-6c61.6-13.5,113.8-43.5,155.9-90.2C706.6,441.8,731.4,375.7,732.5,298.2z"
			/>
		<path d="M732.5,298.2c-1.1,77.5-25.9,143.7-76.4,199.6c-42.2,46.7-94.4,76.7-155.9,90.2c-27.2,5.9-54.6,8.1-82.3,6
			c-73.2-5.6-135.9-34.4-188.3-85.9c-26.8-26.4-48.6-56.2-64.2-90.4c-12.2-26.7-20.1-54.5-24-83.6c-2.7-20.7-3.4-41.5-1.6-62.3
			c5.3-62.7,28-118.4,68.7-166.4c38.6-45.6,86.8-76.6,144.2-93.1c20-5.8,40.5-9.3,61.3-10.5c81.1-4.5,152.5,19.8,213.8,73
			c39.4,34.3,69.1,75.6,86.9,125c8.9,24.7,14.6,50.1,16.6,76.3C731.8,284.2,732.1,292.3,732.5,298.2z M433.9,590.9
			c30.7-0.2,57-3.5,82.7-10.9c67.7-19.5,121.6-58.4,161.6-116.4c29.7-43.2,45.9-91.2,49.7-143.5c1.6-21.8,0.5-43.4-2.9-65
			c-4.5-28.7-13.1-56-25.8-82.1c-21-43.2-51.4-78.7-89.2-108C562.1,28,507.6,8.3,447.2,5.2c-22.8-1.2-45.5,0.4-68,4.7
			c-48.7,9.3-92.7,29.1-130.5,61.2c-75,63.6-110.2,144.9-105.5,243.3c1.2,25.5,6.5,50.3,14.7,74.5c18,53.2,49.7,97.1,92.4,133.1
			C304.4,567.6,367.2,590,433.9,590.9z"/>
		<path class="st0" d="M433.9,590.9c-66.7-0.9-129.5-23.3-183.6-69c-42.7-36-74.4-79.9-92.4-133.1c-8.2-24.2-13.4-49-14.7-74.5
			c-4.8-98.4,30.5-179.7,105.5-243.3c37.8-32,81.8-51.9,130.5-61.2c22.5-4.3,45.2-5.9,68-4.7C507.6,8.3,562.1,28,610,65.1
			c37.8,29.2,68.2,64.8,89.2,108c12.7,26.1,21.3,53.4,25.8,82.1c3.4,21.6,4.5,43.3,2.9,65c-3.8,52.2-20,100.3-49.7,143.5
			c-39.9,58-93.9,96.8-161.6,116.4C490.9,587.4,464.6,590.7,433.9,590.9z M437.5,571.9c23-0.1,46.9-3.1,67.6-8.5
			c60.7-15.9,110.4-48.8,148.6-98.4c31.2-40.5,49.1-86.5,54.4-137.4c2.2-21.2,1.8-42.4-1-63.5c-3.6-26.7-10.9-52.3-22-76.8
			c-17.7-39.1-43.9-71.7-76.6-99.3c-43.8-37-94.4-57.9-151.4-63.1c-26.2-2.4-52.3-1-78.1,4.4c-46.7,9.7-88.5,29.8-124.2,61.5
			c-58.7,52.1-89.9,117.7-93.1,196.3c-1.4,34.7,4.1,68.3,15.9,100.9c14.3,39.4,36.8,73.4,66.5,102.9
			C297.7,543.9,362.3,570.6,437.5,571.9z"/>
		<path d="M437.5,571.9c-75.2-1.3-139.7-28-193.3-81.1c-29.8-29.5-52.3-63.5-66.5-102.9c-11.8-32.6-17.3-66.3-15.9-100.9
			c3.1-78.6,34.4-144.1,93.1-196.3C290.5,59,332.2,38.9,379,29.2c25.8-5.3,51.9-6.8,78.1-4.4c57,5.2,107.6,26.2,151.4,63.1
			c32.6,27.6,58.8,60.2,76.6,99.3c11.1,24.5,18.5,50.1,22,76.8c2.8,21.2,3.3,42.3,1,63.5c-5.3,50.8-23.2,96.9-54.4,137.4
			c-38.3,49.7-87.9,82.5-148.6,98.4C484.4,568.8,460.5,571.8,437.5,571.9z M172.2,298.4c0.7,8.2,1.3,19.5,2.6,30.6
			c3,26.1,10.4,51.1,21.3,75c16.2,35.7,39.9,65.8,69.2,91.5c45.6,40,98.8,61.5,159.3,64.9c23.5,1.3,46.9-0.6,70-5.9
			c60.9-14,110.7-45.6,149.1-94.9c32.5-41.7,50.4-89.2,54-142.1c1.7-25.7-0.2-51.1-6-76.1c-14-60.1-46.2-108.7-93.5-147.5
			c-41.7-34.3-89.8-53.5-143.7-58.1c-24.3-2.1-48.4-0.7-72.3,4.1c-46.6,9.4-87.8,29.7-123,61.6C202.3,153.4,174,218.4,172.2,298.4z"
			/>
		<path class="st0" d="M172.2,298.4c1.8-80,30.1-145,87.2-196.9c35.2-32,76.4-52.3,123-61.6c23.9-4.8,48-6.1,72.3-4.1
			c53.9,4.6,101.9,23.8,143.7,58.1c47.3,38.8,79.5,87.5,93.5,147.5c5.8,25,7.7,50.4,6,76.1c-3.6,52.8-21.5,100.4-54,142.1
			c-38.4,49.2-88.2,80.9-149.1,94.9c-23,5.3-46.4,7.3-70,5.9c-60.5-3.4-113.7-24.9-159.3-64.9c-29.3-25.7-53-55.8-69.2-91.5
			c-10.9-23.9-18.3-48.9-21.3-75C173.5,317.9,172.9,306.6,172.2,298.4z M431.4,272.1c0.3,0.1,0.6,0.2,1,0.3c0.1,1,0.4,2,0.4,2.9
			c0.6,11.8,1.3,23.7,1.6,35.5c0.3,9.5,0.4,19,0.3,28.4c-0.1,6.9-2.4,9.3-9.2,10.5c-1.1,0.2-2.3,0.4-3.2,0.9
			c-0.8,0.5-1.2,1.5-1.8,2.2c0.8,0.6,1.5,1.6,2.3,1.6c3,0.2,6,0.1,9,0.1c8.4,0,16.9,0,25.3,0c3.2,0,6.4,0,9.6,0
			c9.4-0.2,18.9-0.9,28.3-0.7c9.1,0.1,18.1,0.2,27-2.4c7.3-2.1,14-5.5,19.4-11c7-7,7.4-16,6.7-25.1c-0.5-6.9-3.2-12.7-8.9-16.6
			c-4-2.8-8.7-4.6-13.1-6.8c-0.9-0.5-1.9-0.8-3.7-1.6c2.5-1.2,4.1-1.9,5.7-2.7c9.5-4.8,14.1-13.9,13-25.8
			c-0.9-9.8-6.1-16.3-16.6-19.1c-5.8-1.6-11.9-2.5-18-2.7c-11.9-0.3-23.9,0.1-35.8,0.4c-11,0.3-22,1-33,1.3
			c-2.8,0.1-3.7,1.1-4.3,3.6c-0.9,4.3-1.6,8.8-3.4,12.8c-10.7,22.8-21.7,45.5-32.7,68.3c-0.5,1-1.7,2.2-2.5,2.1
			c-0.9-0.1-2-1.3-2.4-2.3c-10.1-27.1-22.6-53.3-30.8-81.1c-0.4-1.2-2.1-2.9-3.3-3c-9.3-0.7-18.7-1.1-28.1-1.4
			c-1.2,0-2.5,1.2-3.7,1.9c1.1,1.1,2,2.6,3.3,3.2c1.9,0.9,4.2,0.9,6.3,1.6c8.9,3.2,10.2,5.8,9.9,13.1c-0.3,9.7-0.8,19.4-1.8,29
			c-1.6,15.8-3.5,31.5-5.5,47.3c-1,7.7-4.5,11.3-11.6,13c-1.8,0.4-4.6,0.3-4.4,2.9c0.3,2.6,3.1,1.9,4.8,1.8
			c6.4-0.1,12.8-0.6,19.1-0.6c4.2,0,8.4,0.5,12.6,0.6c1.8,0,4.5,0.7,4.8-1.8c0.1-0.7-2.7-2.4-4.3-2.8c-8.7-2.2-12.3-6.6-12.3-15.6
			c-0.1-20.5,2.8-40.7,5.4-60.9c0.1-0.6,0.5-1.2,1.1-2.4c0.8,1.5,1.5,2.3,1.9,3.3c6.6,16.3,13.4,32.6,19.8,49
			c3.8,9.7,7,19.6,10.6,29.3c0.4,1.1,1.4,2,2.2,3c0.9-0.9,1.7-1.8,2.6-2.8c0.1-0.1,0.2-0.4,0.3-0.6c12.7-25.8,25.3-51.6,38-77.4
			C430,273.9,430.8,273,431.4,272.1z"/>
		<path d="M431.4,272.1c-0.6,1-1.4,1.9-1.9,2.9c-12.7,25.8-25.3,51.6-38,77.4c-0.1,0.2-0.1,0.4-0.3,0.6c-0.8,0.9-1.7,1.9-2.6,2.8
			c-0.7-1-1.8-1.9-2.2-3c-3.6-9.8-6.8-19.7-10.6-29.3c-6.4-16.4-13.2-32.7-19.8-49c-0.4-1-1-1.8-1.9-3.3c-0.6,1.2-1,1.8-1.1,2.4
			c-2.7,20.2-5.5,40.4-5.4,60.9c0,9,3.6,13.3,12.3,15.6c1.7,0.4,4.5,2.1,4.3,2.8c-0.4,2.5-3,1.9-4.8,1.8c-4.2-0.1-8.4-0.7-12.6-0.6
			c-6.4,0-12.8,0.5-19.1,0.6c-1.8,0-4.6,0.8-4.8-1.8c-0.3-2.6,2.6-2.5,4.4-2.9c7.1-1.7,10.6-5.3,11.6-13c2-15.7,3.9-31.5,5.5-47.3
			c1-9.6,1.4-19.3,1.8-29c0.2-7.3-1-9.9-9.9-13.1c-2-0.7-4.3-0.7-6.3-1.6c-1.3-0.6-2.2-2.1-3.3-3.2c1.2-0.7,2.5-1.9,3.7-1.9
			c9.4,0.3,18.7,0.7,28.1,1.4c1.2,0.1,2.9,1.7,3.3,3c8.2,27.8,20.7,54,30.8,81.1c0.4,1,1.5,2.3,2.4,2.3c0.8,0.1,2-1.2,2.5-2.1
			c11-22.7,22-45.4,32.7-68.3c1.8-3.9,2.5-8.5,3.4-12.8c0.5-2.5,1.4-3.6,4.3-3.6c11-0.3,22-1,33-1.3c11.9-0.3,23.9-0.7,35.8-0.4
			c6,0.1,12.1,1.1,18,2.7c10.5,2.8,15.7,9.3,16.6,19.1c1.1,12-3.5,21-13,25.8c-1.6,0.8-3.3,1.5-5.7,2.7c1.8,0.7,2.8,1.1,3.7,1.6
			c4.4,2.2,9.1,4,13.1,6.8c5.7,3.9,8.4,9.7,8.9,16.6c0.7,9.2,0.2,18.1-6.7,25.1c-5.4,5.5-12.1,8.8-19.4,11c-8.8,2.6-17.9,2.5-27,2.4
			c-9.4-0.2-18.9,0.5-28.3,0.7c-3.2,0.1-6.4,0-9.6,0c-8.4,0-16.9,0-25.3,0c-3,0-6,0.1-9-0.1c-0.8-0.1-1.5-1-2.3-1.6
			c0.6-0.8,1-1.8,1.8-2.2c0.9-0.5,2.1-0.7,3.2-0.9c6.8-1.2,9.1-3.6,9.2-10.5c0.1-9.5,0-19-0.3-28.4c-0.4-11.8-1.1-23.7-1.6-35.5
			c0-1-0.3-2-0.4-2.9C432.1,272.2,431.8,272.1,431.4,272.1z M476.2,297.3c0-12.6,0-25.1,0-37.7c0-9.8-2.4-12.6-12.2-13.8
			c-1.3-0.2-2.7,0-3.9,0.4c-2.7,0.9-5.4,2-8.1,3.1c-4.8,1.9-6,3.4-5.7,8.6c1.2,26.7,2.5,53.5,3.8,80.2c0.2,3.6,1.7,6.5,4.8,8.6
			c5.2,3.7,10.3,2.4,15.5-0.1c4.6-2.2,5.9-6.2,5.8-11C476.2,322.9,476.2,310.1,476.2,297.3z M489.8,318.5c0,5.6-0.1,11.1,0,16.7
			c0.1,7.5,3.1,10.7,10.5,11.5c6.4,0.7,12.5-0.6,18.1-3.8c14.2-8.1,18.1-25.5,8.5-37.9c-6.4-8.2-22-13.3-31.9-10.3
			c-3.2,0.9-5.2,3.5-5.2,6.8C489.8,307.1,489.8,312.8,489.8,318.5z M489.8,267.5c0,4.7,0,9.5,0,14.2c0,5.4,1.5,7.1,6.9,7.3
			c6.9,0.3,13.6-0.7,19.8-3.9c2-1,3.9-2.4,5.3-4.1c5.9-6.8,5.3-14.6,2.9-22.5c-1.8-6-6-10.4-12-11.8c-5.2-1.2-10.8-1.4-16.2-1.3
			c-5,0.2-6.7,2.6-6.7,7.8C489.8,258,489.8,262.8,489.8,267.5z"/>
		<path class="st0" d="M476.2,297.3c0,12.8,0,25.5,0,38.3c0,4.8-1.2,8.7-5.8,11c-5.1,2.5-10.2,3.8-15.5,0.1c-3-2.1-4.6-5-4.8-8.6
			c-1.3-26.7-2.6-53.5-3.8-80.2c-0.2-5.2,0.9-6.7,5.7-8.6c2.7-1.1,5.3-2.2,8.1-3.1c1.2-0.4,2.6-0.6,3.9-0.4
			c9.8,1.2,12.2,4,12.2,13.8C476.2,272.2,476.2,284.8,476.2,297.3z"/>
		<path class="st0" d="M489.8,318.5c0-5.7,0-11.3,0-17c0-3.3,2-5.9,5.2-6.8c10-3,25.6,2.1,31.9,10.3c9.6,12.4,5.7,29.8-8.5,37.9
			c-5.6,3.2-11.7,4.5-18.1,3.8c-7.4-0.8-10.4-4-10.5-11.5C489.7,329.6,489.8,324,489.8,318.5z"/>
		<path class="st0" d="M489.8,267.5c0-4.7,0-9.5,0-14.2c0-5.2,1.7-7.6,6.7-7.8c5.4-0.2,11,0.1,16.2,1.3c6.1,1.4,10.2,5.8,12,11.8
			c2.4,7.9,3,15.7-2.9,22.5c-1.4,1.7-3.3,3.1-5.3,4.1c-6.2,3.1-12.9,4.2-19.8,3.9c-5.5-0.3-6.9-1.9-6.9-7.3
			C489.8,277,489.8,272.2,489.8,267.5z"/>
	</g>
</g>
</svg>
